<svg xmlns="http://www.w3.org/2000/svg" xmlns:xlink="http://www.w3.org/1999/xlink" x="0" y="0" width="272" height="252.5" style="
        width:272px;
        height:252.5px;
        background: #FFF;
        fill: none;
">
        
        
        <svg xmlns="http://www.w3.org/2000/svg" class="role-diagram-draw-area"><g class="shapes-region" style="stroke: black; fill: none;"><g class="arrow-line"><path class="connection real" stroke-dasharray="1.125 3.35" d="  M234.3,157 L234.3,120.2" style="stroke: rgb(0, 0, 0); stroke-width: 1; fill: none; fill-opacity: 1;"/></g><g class="arrow-line"><path class="connection real" stroke-dasharray="" d="  M103.5,140 L103.5,210.5" style="stroke: rgb(245, 166, 35); stroke-opacity: 0.5; stroke-width: 1; fill: none; fill-opacity: 1;"/></g><g class="arrow-line"><path class="connection real" stroke-dasharray="" d="  M83.04,245.08 L231.3,159.48" style="stroke: rgb(0, 0, 0); stroke-opacity: 0.5; stroke-width: 1; fill: none; fill-opacity: 1;"/></g><g class="composite-shape"><path class="real" d=" M99.75,212.81 L116.31,203.25 L125.88,219.81 L109.31,229.38 Z" style="stroke-width: 1; stroke: none; stroke-opacity: 1; fill: rgb(74, 144, 226); fill-opacity: 0.5;"/></g><g class="arrow-line"><path class="connection real" stroke-dasharray="" d="  M139.5,99 L69.5,99" style="stroke: rgb(0, 0, 0); stroke-width: 1; fill: none; fill-opacity: 1;"/></g><g class="arrow-line"><path class="connection real" stroke-dasharray="" d="  M69.5,29 L139.5,29" style="stroke: rgb(0, 0, 0); stroke-width: 1; fill: none; fill-opacity: 1;"/></g><g class="composite-shape"><path class="real" d=" M89.5,49 L119.5,49 L119.5,79 L89.5,79 Z" style="stroke-width: 1; stroke: rgb(0, 0, 0); fill: none; fill-opacity: 1;"/></g><g class="arrow-line"><path class="connection real" stroke-dasharray="" d="  M119.5,49 L89.5,79" style="stroke: rgb(0, 0, 0); stroke-width: 1; fill: none; fill-opacity: 1;"/></g><g class="composite-shape"><path class="real" d=" M80.9,32 L128.5,32 L128.5,36.4 L80.9,36.4 Z" style="stroke-width: 1; stroke: none; stroke-opacity: 1; fill: rgb(139, 87, 42); fill-opacity: 1;"/></g><g class="composite-shape"><path class="real" d=" M135.7,42.8 L135.7,90.4 L131.3,90.4 L131.3,42.8 Z" style="stroke-width: 1; stroke: none; stroke-opacity: 1; fill: rgb(74, 144, 226); fill-opacity: 1;"/></g><g class="arrow-line"><path class="connection real" stroke-dasharray="" d="  M59.5,157 L230.7,157" style="stroke: rgb(0, 0, 0); stroke-width: 1; fill: none; fill-opacity: 1;"/></g><g class="arrow-line"><path class="connection real" stroke-dasharray="" d="  M139.5,29 L139.5,99" style="stroke: rgb(0, 0, 0); stroke-width: 1; fill: none; fill-opacity: 1;"/></g><g class="arrow-line"><path class="connection real" stroke-dasharray="" d="  M69.5,29 L69.5,99" style="stroke: rgb(0, 0, 0); stroke-width: 1; fill: none; fill-opacity: 1;"/></g><g class="composite-shape"><path class="real" d=" M230.7,157 C230.7,155.01 232.31,153.4 234.3,153.4 C236.29,153.4 237.9,155.01 237.9,157 C237.9,158.99 236.29,160.6 234.3,160.6 C232.31,160.6 230.7,158.99 230.7,157 Z" style="stroke-width: 1; stroke: rgb(0, 0, 0); fill: rgb(255, 255, 255); fill-opacity: 1;"/></g><g class="arrow-line"><path class="connection real" stroke-dasharray="" d="  M183.75,157.25 C185.13,166.75 187.38,174.5 192.38,181.75" style="stroke: rgb(0, 0, 0); stroke-opacity: 0.5; stroke-width: 1; fill: none; fill-opacity: 1;"/></g><g class="arrow-line"><path class="connection real" stroke-dasharray="" d="  M103.5,65.5 L103.5,140" style="stroke: rgb(245, 166, 35); stroke-opacity: 1; stroke-width: 1; fill: none; fill-opacity: 1;"/></g><g class="arrow-line"><path class="connection real" stroke-dasharray="" d="  M103.5,65.5 L103.5,36.25" style="stroke: rgb(245, 166, 35); stroke-opacity: 1; stroke-width: 1; fill: none; fill-opacity: 1;"/></g><g class="arrow-line"><path class="connection real" stroke-dasharray="" d="  M103.5,65.5 L131.38,65.5" style="stroke: rgb(245, 166, 35); stroke-opacity: 1; stroke-width: 1; fill: none; fill-opacity: 1;"/></g><g class="composite-shape"><path class="real" d=" M94.25,137.5 L113.38,137.5 L113.38,156.63 L94.25,156.63 Z" style="stroke-width: 1; stroke: none; stroke-opacity: 1; fill: rgb(74, 144, 226); fill-opacity: 1;"/></g><g class="arrow-line"><path class="connection real" stroke-dasharray="1.125 3.35" d="  M121.48,230.15 C140.44,249.49 149.21,235.79 165.2,235.4" style="stroke: rgb(0, 0, 0); stroke-width: 1; fill: none; fill-opacity: 1;"/><g stroke="none" fill="#000" transform="matrix(0.6794413042615165,0.7337298645028764,-0.7337298645028764,0.6794413042615165,119.99999999999999,228.60000000000002)" style="stroke: none; fill: rgb(0, 0, 0); stroke-width: 1;"><path d=" M7.2,-1.8 L0,0 L7.2,1.8 Z"/></g></g><g class="arrow-line"><path class="connection real" stroke-dasharray="1.125 3.35" d="  M102.88,137.5 L19.63,137.5" style="stroke: rgb(0, 0, 0); stroke-width: 1; fill: none; fill-opacity: 1;"/></g><g class="arrow-line"><path class="connection real" stroke-dasharray="1.125 3.35" d="  M103.5,210.5 L19.88,210.5" style="stroke: rgb(0, 0, 0); stroke-width: 1; fill: none; fill-opacity: 1;"/></g><g class="arrow-line"><path class="connection real" stroke-dasharray="1.125 3.35" d="  M32.87,208.5 L32.63,139.5" style="stroke: rgb(0, 0, 0); stroke-width: 1; fill: none; fill-opacity: 1;"/><g stroke="none" fill="#000" transform="matrix(0.003490651415223821,0.9999939076577904,-0.9999939076577904,0.003490651415223821,32.625,137.5)" style="stroke: none; fill: rgb(0, 0, 0); stroke-width: 1;"><path d=" M7.2,-1.8 L0,0 L7.2,1.8 Z"/></g><g stroke="none" fill="#000" transform="matrix(-0.0034906514152236987,-0.9999939076577904,0.9999939076577904,-0.0034906514152236987,32.875,210.5)" style="stroke: none; fill: rgb(0, 0, 0); stroke-width: 1;"><path d=" M7.2,-1.8 L0,0 L7.2,1.8 Z"/></g></g><g class="arrow-line"><path class="connection real" stroke-dasharray="1.125 3.35" d="  M69.5,99 L19.67,99" style="stroke: rgb(0, 0, 0); stroke-width: 1; fill: none; fill-opacity: 1;"/></g><g class="arrow-line"><path class="connection real" stroke-dasharray="1.125 3.35" d="  M32.63,135.5 L32.63,101.33" style="stroke: rgb(0, 0, 0); stroke-width: 1; fill: none; fill-opacity: 1;"/><g stroke="none" fill="#000" transform="matrix(3.061616997868383e-16,1,-1,3.061616997868383e-16,32.624999999999986,99.33333333333334)" style="stroke: none; fill: rgb(0, 0, 0); stroke-width: 1;"><path d=" M7.2,-1.8 L0,0 L7.2,1.8 Z"/></g><g stroke="none" fill="#000" transform="matrix(-1.8369701987210297e-16,-1,1,-1.8369701987210297e-16,32.625,137.5)" style="stroke: none; fill: rgb(0, 0, 0); stroke-width: 1;"><path d=" M7.2,-1.8 L0,0 L7.2,1.8 Z"/></g></g><g class="arrow-line"><path class="connection real" stroke-dasharray="1.125 3.35" d="  M235.9,165.92 C239.27,188.94 246.85,181.75 248.4,193" style="stroke: rgb(0, 0, 0); stroke-width: 1; fill: none; fill-opacity: 1;"/><g stroke="none" fill="#000" transform="matrix(0.12360147674049261,0.9923319378854887,-0.9923319378854887,0.12360147674049261,235.6,163.70000000000005)" style="stroke: none; fill: rgb(0, 0, 0); stroke-width: 1;"><path d=" M7.2,-1.8 L0,0 L7.2,1.8 Z"/></g></g><g class="arrow-line"><path class="connection real" stroke-dasharray="1.125 3.35" d="  M105.6,129.2 L232.3,129.2" style="stroke: rgb(0, 0, 0); stroke-width: 1; fill: none; fill-opacity: 1;"/><g stroke="none" fill="#000" transform="matrix(-1,1.2246467991473532e-16,-1.2246467991473532e-16,-1,234.3,129.20000000000002)" style="stroke: none; fill: rgb(0, 0, 0); stroke-width: 1;"><path d=" M7.2,-1.8 L0,0 L7.2,1.8 Z"/></g><g stroke="none" fill="#000" transform="matrix(1,0,0,1,103.6,129.2)" style="stroke: none; fill: rgb(0, 0, 0); stroke-width: 1;"><path d=" M7.2,-1.8 L0,0 L7.2,1.8 Z"/></g></g><g/></g><g/><g/><g/></svg>
        <svg xmlns="http://www.w3.org/2000/svg" xmlns:xlink="http://www.w3.org/1999/xlink" width="270" height="250.5" style="width:270px;height:250.5px;font-family:LatinModern-Math, LatinModern, Asana-Math, Asana;background:#FFF;"><g><g><g><g transform="matrix(1,0,0,1,192.5,169.5)"><path transform="matrix(0.017,0,0,-0.017,0,0)" d="M619 304C619 382 580 442 505 442C360 442 300 248 240 53C132 73 76 129 76 201C76 229 99 339 159 408C167 417 167 421 167 421C167 425 165 431 155 431C127 431 50 286 50 190C50 96 116 23 223 -2L170 -170C166 -183 165 -185 165 -190C165 -212 184 -218 194 -218C199 -218 221 -215 231 -192C234 -184 239 -151 266 -9C275 -10 282 -11 299 -11C465 -11 619 146 619 304ZM591 282C591 169 462 47 308 47C300 47 298 47 290 48C278 48 277 49 277 52L297 160C328 288 406 384 495 384C564 384 591 330 591 282Z" stroke="rgb(0,0,0)" stroke-opacity="0.5" stroke-width="0" fill="rgb(0,0,0)" fill-opacity="0.5"></path></g></g></g></g><g><g><g><g transform="matrix(1,0,0,1,56.75,22.25)"><path transform="matrix(0.015,0,0,-0.015,0,0)" d="M28 0C63 3 142 3 180 3C219 3 298 3 333 0L333 31L307 31C228 31 225 42 225 78L225 605C225 641 228 652 307 652L333 652L333 683C298 680 219 680 181 680C142 680 63 680 28 683L28 652L54 652C133 652 136 641 136 605L136 78C136 42 133 31 54 31L28 31ZM393 0C428 1 479 3 506 3C532 3 584 1 618 0L618 31C551 31 540 31 540 76L540 260C540 364 611 420 675 420C738 420 749 366 749 309L749 76C749 31 738 31 671 31L671 0C706 1 757 3 784 3C810 3 862 1 896 0L896 31C844 31 819 31 818 61L818 252C818 338 818 369 787 405C773 422 740 442 682 442C609 442 562 399 534 337L534 442L393 431L393 400C463 400 471 393 471 344L471 76C471 31 460 31 393 31ZM907 400L992 400L992 124C992 1 1085 -11 1121 -11C1192 -11 1220 60 1220 124L1220 181L1195 181L1195 126C1195 52 1165 14 1128 14C1061 14 1061 105 1061 122L1061 400L1204 400L1204 431L1061 431L1061 615L1036 615C1035 533 1005 426 907 422ZM1304 220C1304 86 1409 -11 1524 -11C1646 -11 1691 100 1691 119C1691 129 1683 131 1678 131C1669 131 1667 125 1665 117C1630 14 1540 14 1530 14C1480 14 1440 44 1417 81C1387 129 1387 195 1387 231L1666 231C1688 231 1691 231 1691 252C1691 351 1637 448 1512 448C1396 448 1304 345 1304 220ZM1388 252C1394 401 1478 426 1512 426C1615 426 1625 291 1625 252ZM1748 0C1787 1 1834 3 1862 3C1902 3 1949 3 1989 0L1989 31L1968 31C1894 31 1892 42 1892 78L1892 232C1892 331 1934 420 2010 420C2017 420 2019 420 2021 419C2018 418 1998 406 1998 380C1998 352 2019 337 2041 337C2059 337 2084 349 2084 381C2084 413 2053 442 2010 442C1937 442 1901 375 1887 332L1887 442L1748 431L1748 400C1818 400 1826 393 1826 344L1826 76C1826 31 1815 31 1748 31ZM2144 400L2223 400L2223 76C2223 31 2212 31 2145 31L2145 0C2184 1 2231 3 2259 3C2299 3 2346 3 2386 0L2386 31L2365 31C2291 31 2289 42 2289 78L2289 400L2403 400L2403 431L2286 431L2286 547C2286 635 2334 683 2378 683C2381 683 2396 683 2411 676C2399 672 2381 659 2381 634C2381 611 2397 591 2424 591C2453 591 2468 611 2468 635C2468 672 2431 705 2378 705C2308 705 2223 652 2223 546L2223 431L2144 431ZM2444 220C2444 86 2549 -11 2664 -11C2786 -11 2831 100 2831 119C2831 129 2823 131 2818 131C2809 131 2807 125 2805 117C2770 14 2680 14 2670 14C2620 14 2580 44 2557 81C2527 129 2527 195 2527 231L2806 231C2828 231 2831 231 2831 252C2831 351 2777 448 2652 448C2536 448 2444 345 2444 220ZM2528 252C2534 401 2618 426 2652 426C2755 426 2765 291 2765 252ZM2888 0C2927 1 2974 3 3002 3C3042 3 3089 3 3129 0L3129 31L3108 31C3034 31 3032 42 3032 78L3032 232C3032 331 3074 420 3150 420C3157 420 3159 420 3161 419C3158 418 3138 406 3138 380C3138 352 3159 337 3181 337C3199 337 3224 349 3224 381C3224 413 3193 442 3150 442C3077 442 3041 375 3027 332L3027 442L2888 431L2888 400C2958 400 2966 393 2966 344L2966 76C2966 31 2955 31 2888 31ZM3279 214C3279 85 3383 -11 3500 -11C3621 -11 3722 87 3722 214C3722 342 3622 448 3501 448C3376 448 3279 339 3279 214ZM3362 222C3362 261 3362 315 3386 359C3413 405 3460 426 3500 426C3544 426 3587 404 3613 361C3639 318 3639 260 3639 222C3639 186 3639 132 3617 88C3595 43 3551 14 3501 14C3458 14 3414 35 3387 81C3362 125 3362 186 3362 222ZM3783 0C3818 1 3869 3 3896 3C3922 3 3974 1 4008 0L4008 31C3941 31 3930 31 3930 76L3930 260C3930 364 4001 420 4065 420C4128 420 4139 366 4139 309L4139 76C4139 31 4128 31 4061 31L4061 0C4096 1 4147 3 4174 3C4200 3 4252 1 4286 0L4286 31C4219 31 4208 31 4208 76L4208 260C4208 364 4279 420 4343 420C4406 420 4417 366 4417 309L4417 76C4417 31 4406 31 4339 31L4339 0C4374 1 4425 3 4452 3C4478 3 4530 1 4564 0L4564 31C4512 31 4487 31 4486 61L4486 252C4486 338 4486 369 4455 405C4441 422 4408 442 4350 442C4266 442 4222 382 4205 344C4191 431 4117 442 4072 442C3999 442 3952 399 3924 337L3924 442L3783 431L3783 400C3853 400 3861 393 3861 344L3861 76C3861 31 3850 31 3783 31ZM4612 220C4612 86 4717 -11 4832 -11C4954 -11 4999 100 4999 119C4999 129 4991 131 4986 131C4977 131 4975 125 4973 117C4938 14 4848 14 4838 14C4788 14 4748 44 4725 81C4695 129 4695 195 4695 231L4974 231C4996 231 4999 231 4999 252C4999 351 4945 448 4820 448C4704 448 4612 345 4612 220ZM4696 252C4702 401 4786 426 4820 426C4923 426 4933 291 4933 252ZM5047 400L5132 400L5132 124C5132 1 5225 -11 5261 -11C5332 -11 5360 60 5360 124L5360 181L5335 181L5335 126C5335 52 5305 14 5268 14C5201 14 5201 105 5201 122L5201 400L5344 400L5344 431L5201 431L5201 615L5176 615C5175 533 5145 426 5047 422ZM5444 220C5444 86 5549 -11 5664 -11C5786 -11 5831 100 5831 119C5831 129 5823 131 5818 131C5809 131 5807 125 5805 117C5770 14 5680 14 5670 14C5620 14 5580 44 5557 81C5527 129 5527 195 5527 231L5806 231C5828 231 5831 231 5831 252C5831 351 5777 448 5652 448C5536 448 5444 345 5444 220ZM5528 252C5534 401 5618 426 5652 426C5755 426 5765 291 5765 252ZM5888 0C5927 1 5974 3 6002 3C6042 3 6089 3 6129 0L6129 31L6108 31C6034 31 6032 42 6032 78L6032 232C6032 331 6074 420 6150 420C6157 420 6159 420 6161 419C6158 418 6138 406 6138 380C6138 352 6159 337 6181 337C6199 337 6224 349 6224 381C6224 413 6193 442 6150 442C6077 442 6041 375 6027 332L6027 442L5888 431L5888 400C5958 400 5966 393 5966 344L5966 76C5966 31 5955 31 5888 31Z" stroke="rgb(0,0,0)" stroke-opacity="1" stroke-width="0" fill="rgb(0,0,0)" fill-opacity="1"></path></g></g></g></g><g><g><g><g transform="matrix(1,0,0,1,169.6875,239.6875)"><path transform="matrix(0.015,0,0,-0.015,0,0)" d="M56 342C56 135 218 -22 404 -22C567 -22 665 117 665 233C665 243 665 250 652 250C641 250 641 244 640 234C632 91 525 9 416 9C355 9 159 43 159 341C159 640 354 674 415 674C524 674 613 583 633 437C635 423 635 420 649 420C665 420 665 423 665 444L665 681C665 698 665 705 654 705C650 705 646 705 638 693L588 619C551 655 500 705 404 705C217 705 56 546 56 342ZM750 214C750 85 854 -11 971 -11C1092 -11 1193 87 1193 214C1193 342 1093 448 972 448C847 448 750 339 750 214ZM833 222C833 261 833 315 857 359C884 405 931 426 971 426C1015 426 1058 404 1084 361C1110 318 1110 260 1110 222C1110 186 1110 132 1088 88C1066 43 1022 14 972 14C929 14 885 35 858 81C833 125 833 186 833 222ZM1250 0C1289 1 1336 3 1364 3C1404 3 1451 3 1491 0L1491 31L1470 31C1396 31 1394 42 1394 78L1394 232C1394 331 1436 420 1512 420C1519 420 1521 420 1523 419C1520 418 1500 406 1500 380C1500 352 1521 337 1543 337C1561 337 1586 349 1586 381C1586 413 1555 442 1512 442C1439 442 1403 375 1389 332L1389 442L1250 431L1250 400C1320 400 1328 393 1328 344L1328 76C1328 31 1317 31 1250 31ZM1645 0C1680 1 1731 3 1758 3C1784 3 1836 1 1870 0L1870 31C1803 31 1792 31 1792 76L1792 260C1792 364 1863 420 1927 420C1990 420 2001 366 2001 309L2001 76C2001 31 1990 31 1923 31L1923 0C1958 1 2009 3 2036 3C2062 3 2114 1 2148 0L2148 31C2096 31 2071 31 2070 61L2070 252C2070 338 2070 369 2039 405C2025 422 1992 442 1934 442C1861 442 1814 399 1786 337L1786 442L1645 431L1645 400C1715 400 1723 393 1723 344L1723 76C1723 31 1712 31 1645 31ZM2196 220C2196 86 2301 -11 2416 -11C2538 -11 2583 100 2583 119C2583 129 2575 131 2570 131C2561 131 2559 125 2557 117C2522 14 2432 14 2422 14C2372 14 2332 44 2309 81C2279 129 2279 195 2279 231L2558 231C2580 231 2583 231 2583 252C2583 351 2529 448 2404 448C2288 448 2196 345 2196 220ZM2280 252C2286 401 2370 426 2404 426C2507 426 2517 291 2517 252ZM2640 0C2679 1 2726 3 2754 3C2794 3 2841 3 2881 0L2881 31L2860 31C2786 31 2784 42 2784 78L2784 232C2784 331 2826 420 2902 420C2909 420 2911 420 2913 419C2910 418 2890 406 2890 380C2890 352 2911 337 2933 337C2951 337 2976 349 2976 381C2976 413 2945 442 2902 442C2829 442 2793 375 2779 332L2779 442L2640 431L2640 400C2710 400 2718 393 2718 344L2718 76C2718 31 2707 31 2640 31ZM3370 216C3370 88 3469 -11 3585 -11C3719 -11 3751 109 3751 119C3751 129 3741 129 3738 129C3729 129 3727 125 3725 119C3696 26 3631 14 3594 14C3541 14 3453 57 3453 218C3453 381 3535 423 3588 423C3597 423 3660 422 3695 386C3654 383 3648 353 3648 340C3648 314 3666 294 3694 294C3720 294 3740 311 3740 341C3740 409 3664 448 3587 448C3462 448 3370 340 3370 216ZM3812 400C3890 400 3890 397 3890 308L3890 158C3890 80 3890 -11 4042 -11C4098 -11 4142 17 4171 79L4171 -11L4315 0L4315 31C4245 31 4237 38 4237 87L4237 442L4090 431L4090 400C4160 400 4168 393 4168 344L4168 166C4168 79 4120 11 4047 11C3963 11 3959 58 3959 110L3959 442L3812 431ZM4363 652C4433 652 4441 645 4441 596L4441 0L4466 0C4467 1 4475 15 4502 62C4517 39 4559 -11 4633 -11C4752 -11 4856 87 4856 216C4856 343 4758 442 4644 442C4566 442 4523 395 4507 377L4507 694L4363 683ZM4510 114L4510 320C4510 339 4510 340 4521 356C4560 412 4615 420 4639 420C4684 420 4720 394 4744 356C4770 315 4773 258 4773 217C4773 180 4771 120 4742 75C4721 44 4683 11 4629 11C4584 11 4548 35 4524 72C4510 93 4510 96 4510 114ZM4946 220C4946 86 5051 -11 5166 -11C5288 -11 5333 100 5333 119C5333 129 5325 131 5320 131C5311 131 5309 125 5307 117C5272 14 5182 14 5172 14C5122 14 5082 44 5059 81C5029 129 5029 195 5029 231L5308 231C5330 231 5333 231 5333 252C5333 351 5279 448 5154 448C5038 448 4946 345 4946 220ZM5030 252C5036 401 5120 426 5154 426C5257 426 5267 291 5267 252Z" stroke="rgb(0,0,0)" stroke-opacity="1" stroke-width="0" fill="rgb(0,0,0)" fill-opacity="1"></path></g></g></g></g><g><g><g><g transform="matrix(1,0,0,1,201,205.640625)"><path transform="matrix(0.015,0,0,-0.015,0,0)" d="M36 452L61 452C75 613 90 646 241 646C259 646 285 646 295 644C316 640 316 629 316 606L316 79C316 45 316 31 211 31L171 31L171 0C212 3 314 3 360 3C406 3 509 3 550 0L550 31L510 31C405 31 405 45 405 79L405 606C405 626 405 640 423 644C434 646 461 646 480 646C631 646 646 613 660 452L685 452L666 677L55 677ZM797 616C797 589 819 563 850 563C878 563 903 584 903 616C903 648 878 669 850 669C819 669 797 642 797 616ZM755 0C787 1 841 3 865 3C900 3 935 1 969 0L969 31C903 31 899 36 899 75L899 442L759 431L759 400C824 400 833 394 833 345L833 76C833 31 822 31 755 31ZM1032 0C1065 1 1118 3 1143 3C1168 3 1217 1 1254 0L1254 31C1187 31 1176 31 1176 76L1176 694L1032 683L1032 652C1102 652 1110 645 1110 596L1110 76C1110 31 1099 31 1032 31ZM1295 400L1380 400L1380 124C1380 1 1473 -11 1509 -11C1580 -11 1608 60 1608 124L1608 181L1583 181L1583 126C1583 52 1553 14 1516 14C1449 14 1449 105 1449 122L1449 400L1592 400L1592 431L1449 431L1449 615L1424 615C1423 533 1393 426 1295 422ZM2025 -163L2025 -194C2059 -193 2111 -191 2137 -191C2164 -191 2215 -193 2250 -194L2250 -163C2183 -163 2172 -163 2172 -118L2172 50L2172 59C2177 43 2219 -11 2295 -11C2414 -11 2518 87 2518 216C2518 343 2421 442 2309 442C2231 442 2189 398 2169 376L2169 442L2025 431L2025 400C2096 400 2103 394 2103 350L2103 -118C2103 -163 2092 -163 2025 -163ZM2172 114L2172 337C2201 388 2250 417 2301 417C2374 417 2435 329 2435 216C2435 95 2365 11 2291 11C2251 11 2213 31 2186 72C2172 93 2172 94 2172 114ZM2608 214C2608 85 2712 -11 2829 -11C2950 -11 3051 87 3051 214C3051 342 2951 448 2830 448C2705 448 2608 339 2608 214ZM2691 222C2691 261 2691 315 2715 359C2742 405 2789 426 2829 426C2873 426 2916 404 2942 361C2968 318 2968 260 2968 222C2968 186 2968 132 2946 88C2924 43 2880 14 2830 14C2787 14 2743 35 2716 81C2691 125 2691 186 2691 222ZM3155 616C3155 589 3177 563 3208 563C3236 563 3261 584 3261 616C3261 648 3236 669 3208 669C3177 669 3155 642 3155 616ZM3113 0C3145 1 3199 3 3223 3C3258 3 3293 1 3327 0L3327 31C3261 31 3257 36 3257 75L3257 442L3117 431L3117 400C3182 400 3191 394 3191 345L3191 76C3191 31 3180 31 3113 31ZM3389 0C3424 1 3475 3 3502 3C3528 3 3580 1 3614 0L3614 31C3547 31 3536 31 3536 76L3536 260C3536 364 3607 420 3671 420C3734 420 3745 366 3745 309L3745 76C3745 31 3734 31 3667 31L3667 0C3702 1 3753 3 3780 3C3806 3 3858 1 3892 0L3892 31C3840 31 3815 31 3814 61L3814 252C3814 338 3814 369 3783 405C3769 422 3736 442 3678 442C3605 442 3558 399 3530 337L3530 442L3389 431L3389 400C3459 400 3467 393 3467 344L3467 76C3467 31 3456 31 3389 31ZM3903 400L3988 400L3988 124C3988 1 4081 -11 4117 -11C4188 -11 4216 60 4216 124L4216 181L4191 181L4191 126C4191 52 4161 14 4124 14C4057 14 4057 105 4057 122L4057 400L4200 400L4200 431L4057 431L4057 615L4032 615C4031 533 4001 426 3903 422Z" stroke="rgb(0,0,0)" stroke-opacity="1" stroke-width="0" fill="rgb(0,0,0)" fill-opacity="1"></path></g></g></g></g><g><g><g><g transform="matrix(1,0,0,1,34.15625,179.328125)"><path transform="matrix(0.017,0,0,-0.017,0,0)" d="M787 10C787 14 786 20 785 24L618 692C613 712 612 716 594 716C585 716 577 716 563 697L57 20C49 10 49 6 49 6C49 1 50 0 71 0L761 0C778 0 787 0 787 10ZM679 72L130 72L542 622ZM1300 432C1300 442 1289 442 1289 442C1282 442 1279 440 1274 431C1244 383 1223 367 1199 367C1175 367 1163 382 1148 399C1129 422 1112 442 1079 442C1004 442 958 349 958 328C958 323 961 317 970 317C979 317 981 322 983 328C1002 374 1060 375 1068 375C1089 375 1108 368 1131 360C1171 345 1182 345 1208 345C1172 302 1088 230 1069 214L979 130C911 63 876 6 876 -1C876 -11 888 -11 888 -11C896 -11 898 -9 904 2C927 37 957 64 989 64C1012 64 1022 55 1047 26C1064 5 1082 -11 1111 -11C1210 -11 1268 116 1268 143C1268 148 1264 153 1256 153C1247 153 1245 147 1242 140C1219 75 1155 56 1122 56C1102 56 1084 62 1063 69C1029 82 1014 86 993 86C993 86 975 86 966 83C1020 141 1049 166 1085 197C1085 197 1147 251 1183 287C1278 380 1300 428 1300 432Z" stroke="rgb(0,0,0)" stroke-opacity="1" stroke-width="0" fill="rgb(0,0,0)" fill-opacity="1"></path></g></g></g></g><g><g><g><g transform="matrix(1,0,0,1,36.828125,122)"><path transform="matrix(0.017,0,0,-0.017,0,0)" d="M467 432C467 442 456 442 456 442C449 442 446 440 441 431C411 383 390 367 366 367C342 367 330 382 315 399C296 422 279 442 246 442C171 442 125 349 125 328C125 323 128 317 137 317C146 317 148 322 150 328C169 374 227 375 235 375C256 375 275 368 298 360C338 345 349 345 375 345C339 302 255 230 236 214L146 130C78 63 43 6 43 -1C43 -11 55 -11 55 -11C63 -11 65 -9 71 2C94 37 124 64 156 64C179 64 189 55 214 26C231 5 249 -11 278 -11C377 -11 435 116 435 143C435 148 431 153 423 153C414 153 412 147 409 140C386 75 322 56 289 56C269 56 251 62 230 69C196 82 181 86 160 86C160 86 142 86 133 83C187 141 216 166 252 197C252 197 314 251 350 287C445 380 467 428 467 432Z" stroke="rgb(0,0,0)" stroke-opacity="1" stroke-width="0" fill="rgb(0,0,0)" fill-opacity="1"></path></g></g></g></g><g><g><g><g transform="matrix(1,0,0,1,163,123.59375)"><path transform="matrix(0.017,0,0,-0.017,0,0)" d="M498 143C498 153 489 153 486 153C476 153 475 149 472 135C455 70 437 11 396 11C369 11 366 37 366 57C366 79 368 87 379 131L401 221L437 361C444 389 444 391 444 395C444 412 432 422 415 422C391 422 376 400 373 378C355 415 326 442 281 442C164 442 40 295 40 149C40 55 95 -11 173 -11C193 -11 243 -7 303 64C311 22 346 -11 394 -11C429 -11 452 12 468 44C485 80 498 143 498 143ZM361 332C361 326 359 320 358 315L308 119C303 101 303 99 288 82C244 27 203 11 175 11C125 11 111 66 111 105C111 155 143 278 166 324C197 383 242 420 282 420C347 420 361 338 361 332Z" stroke="rgb(0,0,0)" stroke-opacity="1" stroke-width="0" fill="rgb(0,0,0)" fill-opacity="1"></path></g></g></g></g></svg>
</svg>
