<svg xmlns="http://www.w3.org/2000/svg" xmlns:xlink="http://www.w3.org/1999/xlink" x="0" y="0" width="362" height="264.796875" style="
        width:362px;
        height:264.796875px;
        background: #FFF;
        fill: none;
">
        
        
        <svg xmlns="http://www.w3.org/2000/svg" class="role-diagram-draw-area"><g class="shapes-region" style="stroke: black; fill: none;"><g class="arrow-line"><path class="connection real" stroke-dasharray="" d="  M211.7,67.1 L201.7,87.1" style="stroke: rgb(0, 0, 0); stroke-width: 1; fill: none; fill-opacity: 1;"/></g><g class="arrow-line"><path class="connection real" stroke-dasharray="" d="  M211.7,67.1 L221.7,87.1" style="stroke: rgb(0, 0, 0); stroke-width: 1; fill: none; fill-opacity: 1;"/></g><g class="arrow-line"><path class="connection real" stroke-dasharray="" d="  M187.7,87.1 L235.7,87.1" style="stroke: rgb(0, 0, 0); stroke-width: 1; fill: none; fill-opacity: 1;"/></g><g class="arrow-line"><path class="connection real" stroke-dasharray="" d="  M227.53,93.43 L232.7,87.1" style="stroke: rgb(0, 0, 0); stroke-width: 1; fill: none; fill-opacity: 1;"/></g><g class="composite-shape"><path class="real" d=" M207.87,67.1 C207.87,64.98 209.58,63.27 211.7,63.27 C213.82,63.27 215.53,64.98 215.53,67.1 C215.53,69.22 213.82,70.93 211.7,70.93 C209.58,70.93 207.87,69.22 207.87,67.1 Z" style="stroke-width: 1; stroke: rgb(0, 0, 0); fill: rgb(255, 255, 255); fill-opacity: 1;"/></g><g class="arrow-line"><path class="connection real" stroke-dasharray="" d="  M103.62,62.27 L325.78,62.27" style="stroke: rgb(0, 0, 0); stroke-width: 2; fill: none; fill-opacity: 1;"/></g><g class="composite-shape"><path class="real" d=" M95.95,62.27 C95.95,60.15 97.67,58.43 99.78,58.43 C101.9,58.43 103.62,60.15 103.62,62.27 C103.62,64.38 101.9,66.1 99.78,66.1 C97.67,66.1 95.95,64.38 95.95,62.27 Z" style="stroke-width: 1; stroke: rgb(0, 0, 0); fill: rgb(255, 255, 255); fill-opacity: 1;"/></g><g class="arrow-line"><path class="connection real" stroke-dasharray="" d="  M99.78,66.1 L99.78,150.77" style="stroke: rgb(139, 87, 42); stroke-opacity: 1; stroke-width: 1; fill: none; fill-opacity: 1;"/></g><g class="arrow-line"><path class="connection real" stroke-dasharray="" d="  M187.53,93.43 L192.7,87.1" style="stroke: rgb(0, 0, 0); stroke-width: 1; fill: none; fill-opacity: 1;"/></g><g class="arrow-line"><path class="connection real" stroke-dasharray="" d="  M222.53,93.43 L227.7,87.1" style="stroke: rgb(0, 0, 0); stroke-width: 1; fill: none; fill-opacity: 1;"/></g><g class="arrow-line"><path class="connection real" stroke-dasharray="" d="  M217.53,93.43 L222.7,87.1" style="stroke: rgb(0, 0, 0); stroke-width: 1; fill: none; fill-opacity: 1;"/></g><g class="arrow-line"><path class="connection real" stroke-dasharray="" d="  M212.53,93.43 L217.7,87.1" style="stroke: rgb(0, 0, 0); stroke-width: 1; fill: none; fill-opacity: 1;"/></g><g class="arrow-line"><path class="connection real" stroke-dasharray="" d="  M207.53,93.43 L212.7,87.1" style="stroke: rgb(0, 0, 0); stroke-width: 1; fill: none; fill-opacity: 1;"/></g><g class="arrow-line"><path class="connection real" stroke-dasharray="" d="  M202.53,93.43 L207.7,87.1" style="stroke: rgb(0, 0, 0); stroke-width: 1; fill: none; fill-opacity: 1;"/></g><g class="arrow-line"><path class="connection real" stroke-dasharray="" d="  M197.53,93.43 L202.7,87.1" style="stroke: rgb(0, 0, 0); stroke-width: 1; fill: none; fill-opacity: 1;"/></g><g class="arrow-line"><path class="connection real" stroke-dasharray="" d="  M192.53,93.43 L197.7,87.1" style="stroke: rgb(0, 0, 0); stroke-width: 1; fill: none; fill-opacity: 1;"/></g><g class="arrow-line"><path class="connection real" stroke-dasharray="" d="  M45.03,150.77 L154.53,150.77" style="stroke: rgb(208, 2, 27); stroke-opacity: 1; stroke-width: 1; fill: none; fill-opacity: 1;"/></g><g class="arrow-line"><path class="connection real" stroke-dasharray="" d="  M45.03,183.77 L154.53,183.77" style="stroke: rgb(208, 2, 27); stroke-opacity: 1; stroke-width: 1; fill: none; fill-opacity: 1;"/></g><g class="arrow-line"><path class="connection real" stroke-dasharray="" d="  M154.53,183.77 L154.53,150.77" style="stroke: rgb(208, 2, 27); stroke-opacity: 0.5; stroke-width: 1; fill: none; fill-opacity: 1;"/></g><g class="arrow-line"><path class="connection real" stroke-dasharray="" d="  M45.03,183.77 L45.03,150.77" style="stroke: rgb(208, 2, 27); stroke-opacity: 0.5; stroke-width: 1; fill: none; fill-opacity: 1;"/></g><g class="arrow-line"><path class="connection real" stroke-dasharray="" d="  M45.03,150.77 L154.53,153.43" style="stroke: rgb(208, 2, 27); stroke-opacity: 1; stroke-width: 1; fill: none; fill-opacity: 1;"/></g><g class="arrow-line"><path class="connection real" stroke-dasharray="" d="  M45.03,153.77 L154.53,156.43" style="stroke: rgb(208, 2, 27); stroke-opacity: 1; stroke-width: 1; fill: none; fill-opacity: 1;"/></g><g class="arrow-line"><path class="connection real" stroke-dasharray="" d="  M45.03,156.77 L154.53,159.43" style="stroke: rgb(208, 2, 27); stroke-opacity: 1; stroke-width: 1; fill: none; fill-opacity: 1;"/></g><g class="arrow-line"><path class="connection real" stroke-dasharray="" d="  M45.03,159.77 L154.53,162.43" style="stroke: rgb(208, 2, 27); stroke-opacity: 1; stroke-width: 1; fill: none; fill-opacity: 1;"/></g><g class="arrow-line"><path class="connection real" stroke-dasharray="" d="  M45.03,162.77 L154.53,165.43" style="stroke: rgb(208, 2, 27); stroke-opacity: 1; stroke-width: 1; fill: none; fill-opacity: 1;"/></g><g class="arrow-line"><path class="connection real" stroke-dasharray="" d="  M45.03,165.77 L154.53,168.43" style="stroke: rgb(208, 2, 27); stroke-opacity: 1; stroke-width: 1; fill: none; fill-opacity: 1;"/></g><g class="arrow-line"><path class="connection real" stroke-dasharray="" d="  M45.03,168.77 L154.53,171.43" style="stroke: rgb(208, 2, 27); stroke-opacity: 1; stroke-width: 1; fill: none; fill-opacity: 1;"/></g><g class="arrow-line"><path class="connection real" stroke-dasharray="" d="  M45.03,171.77 L154.53,174.43" style="stroke: rgb(208, 2, 27); stroke-opacity: 1; stroke-width: 1; fill: none; fill-opacity: 1;"/></g><g class="arrow-line"><path class="connection real" stroke-dasharray="" d="  M45.03,174.77 L154.53,177.43" style="stroke: rgb(208, 2, 27); stroke-opacity: 1; stroke-width: 1; fill: none; fill-opacity: 1;"/></g><g class="arrow-line"><path class="connection real" stroke-dasharray="" d="  M45.03,177.77 L154.53,180.43" style="stroke: rgb(208, 2, 27); stroke-opacity: 1; stroke-width: 1; fill: none; fill-opacity: 1;"/></g><g class="arrow-line"><path class="connection real" stroke-dasharray="" d="  M45.03,180.77 L154.53,183.43" style="stroke: rgb(208, 2, 27); stroke-opacity: 1; stroke-width: 1; fill: none; fill-opacity: 1;"/></g><g class="composite-shape"><path class="real" d=" M295.2,30.1 C295.2,29 296.1,28.1 297.2,28.1 L319.45,28.1 C320.55,28.1 321.45,29 321.45,30.1 L321.45,58.6 C321.45,59.7 320.55,60.6 319.45,60.6 L297.2,60.6 C296.1,60.6 295.2,59.7 295.2,58.6 Z" style="stroke-width: 1; stroke: rgb(128, 128, 128); stroke-opacity: 1; fill: rgb(128, 128, 128); fill-opacity: 1;"/></g><g class="arrow-line"><path class="connection real" stroke-dasharray="" d="  M134.7,142.1 L172.7,142.1" style="stroke: rgb(65, 117, 5); stroke-opacity: 1; stroke-width: 1; fill: none; fill-opacity: 1;"/><g stroke="none" fill="rgb(65,117,5)" fill-opacity="1" transform="matrix(-1,1.2246467991473532e-16,-1.2246467991473532e-16,-1,174.69999999999996,142.09999999999997)" style="stroke: none; fill: rgb(65, 117, 5); stroke-width: 1;"><path d=" M9.6,-2.4 L0,0 L9.6,2.4 Z"/></g></g><g class="arrow-line"><path class="connection real" stroke-dasharray="" d="  M134.7,192.1 L172.7,192.1" style="stroke: rgb(65, 117, 5); stroke-opacity: 1; stroke-width: 1; fill: none; fill-opacity: 1;"/><g stroke="none" fill="rgb(65,117,5)" fill-opacity="1" transform="matrix(-1,1.2246467991473532e-16,-1.2246467991473532e-16,-1,174.69999999999996,192.09999999999997)" style="stroke: none; fill: rgb(65, 117, 5); stroke-width: 1;"><path d=" M9.6,-2.4 L0,0 L9.6,2.4 Z"/></g></g><g class="arrow-line"><path class="connection real" stroke-dasharray="" d="  M64.7,142.1 L26.7,142.1" style="stroke: rgb(65, 117, 5); stroke-opacity: 1; stroke-width: 1; fill: none; fill-opacity: 1;"/><g stroke="none" fill="rgb(65,117,5)" fill-opacity="1" transform="matrix(1,-2.4492935982947064e-16,2.4492935982947064e-16,1,24.69999999999999,142.1)" style="stroke: none; fill: rgb(65, 117, 5); stroke-width: 1;"><path d=" M9.6,-2.4 L0,0 L9.6,2.4 Z"/></g></g><g class="arrow-line"><path class="connection real" stroke-dasharray="" d="  M64.7,192.1 L26.7,192.1" style="stroke: rgb(65, 117, 5); stroke-opacity: 1; stroke-width: 1; fill: none; fill-opacity: 1;"/><g stroke="none" fill="rgb(65,117,5)" fill-opacity="1" transform="matrix(1,-2.4492935982947064e-16,2.4492935982947064e-16,1,24.69999999999999,192.1)" style="stroke: none; fill: rgb(65, 117, 5); stroke-width: 1;"><path d=" M9.6,-2.4 L0,0 L9.6,2.4 Z"/></g></g><g class="arrow-line"><path class="connection real" stroke-dasharray="" d="  M99.78,185.77 L99.78,218.27" style="stroke: rgb(189, 16, 224); stroke-opacity: 1; stroke-width: 1; fill: none; fill-opacity: 1;"/><g stroke="none" fill="rgb(189,16,224)" fill-opacity="1" transform="matrix(-1.8369701987210297e-16,-1,1,-1.8369701987210297e-16,99.7833333333333,220.26666666666665)" style="stroke: none; fill: rgb(189, 16, 224); stroke-width: 1;"><path d=" M9.6,-2.4 L0,0 L9.6,2.4 Z"/></g></g><g class="arrow-line"><path class="connection real" stroke-dasharray="" d="  M134.7,167.1 L172.7,167.1" style="stroke: rgb(65, 117, 5); stroke-opacity: 1; stroke-width: 1; fill: none; fill-opacity: 1;"/><g stroke="none" fill="rgb(65,117,5)" fill-opacity="1" transform="matrix(-1,1.2246467991473532e-16,-1.2246467991473532e-16,-1,174.69999999999996,167.09999999999997)" style="stroke: none; fill: rgb(65, 117, 5); stroke-width: 1;"><path d=" M9.6,-2.4 L0,0 L9.6,2.4 Z"/></g></g><g class="arrow-line"><path class="connection real" stroke-dasharray="" d="  M64.7,167.1 L26.7,167.1" style="stroke: rgb(65, 117, 5); stroke-opacity: 1; stroke-width: 1; fill: none; fill-opacity: 1;"/><g stroke="none" fill="rgb(65,117,5)" fill-opacity="1" transform="matrix(1,-2.4492935982947064e-16,2.4492935982947064e-16,1,24.69999999999999,167.1)" style="stroke: none; fill: rgb(65, 117, 5); stroke-width: 1;"><path d=" M9.6,-2.4 L0,0 L9.6,2.4 Z"/></g></g><g class="arrow-line"><path class="connection real" stroke-dasharray="" d="  M154.53,150.77 C162.7,151.27 168.37,156.93 178.53,150.77" style="stroke: rgb(0, 0, 0); stroke-width: 1; fill: none; fill-opacity: 1;"/></g><g class="arrow-line"><path class="connection real" stroke-dasharray="" d="  M154.53,183.43 C162.7,183.93 168.03,177.6 178.53,183.43" style="stroke: rgb(0, 0, 0); stroke-width: 1; fill: none; fill-opacity: 1;"/></g><g class="composite-shape"><path class="real" d=" M178.53,150.77 C178.53,149.39 179.65,148.27 181.03,148.27 C182.41,148.27 183.53,149.39 183.53,150.77 C183.53,152.15 182.41,153.27 181.03,153.27 C179.65,153.27 178.53,152.15 178.53,150.77 Z" style="stroke-width: 1; stroke: rgb(0, 0, 0); fill: rgb(255, 255, 255); fill-opacity: 1;"/></g><g class="composite-shape"><path class="real" d=" M178.53,183.43 C178.53,182.05 179.65,180.93 181.03,180.93 C182.41,180.93 183.53,182.05 183.53,183.43 C183.53,184.81 182.41,185.93 181.03,185.93 C179.65,185.93 178.53,184.81 178.53,183.43 Z" style="stroke-width: 1; stroke: rgb(0, 0, 0); fill: rgb(255, 255, 255); fill-opacity: 1;"/></g><g class="arrow-line"><path class="connection real" stroke-dasharray="" d="  M309.45,65.1 L309.45,97.6" style="stroke: rgb(144, 19, 254); stroke-opacity: 1; stroke-width: 1; fill: none; fill-opacity: 1;"/><g stroke="none" fill="rgb(144,19,254)" fill-opacity="1" transform="matrix(-1.8369701987210297e-16,-1,1,-1.8369701987210297e-16,309.45,99.59999999999997)" style="stroke: none; fill: rgb(144, 19, 254); stroke-width: 1;"><path d=" M9.6,-2.4 L0,0 L9.6,2.4 Z"/></g></g><g class="arrow-line"><path class="connection real" stroke-dasharray="" d="  M181.03,185.93 L181.03,196.93" style="stroke: rgb(0, 0, 0); stroke-width: 1; fill: none; fill-opacity: 1;"/></g><g class="arrow-line"><path class="connection real" stroke-dasharray="" d="  M181.03,137.6 L246.37,137.77" style="stroke: rgb(0, 0, 0); stroke-width: 1; fill: none; fill-opacity: 1;"/></g><g class="arrow-line"><path class="connection real" stroke-dasharray="" d="  M181.03,196.93 L228.37,196.93" style="stroke: rgb(0, 0, 0); stroke-width: 1; fill: none; fill-opacity: 1;"/></g><g class="composite-shape"><path class="real" d=" M246.37,137.77 C246.37,132.11 250.96,127.52 256.62,127.52 C262.28,127.52 266.87,132.11 266.87,137.77 C266.87,143.43 262.28,148.02 256.62,148.02 C250.96,148.02 246.37,143.43 246.37,137.77 Z" style="stroke-width: 1; stroke: rgb(0, 0, 0); fill: none; fill-opacity: 1;"/></g><g class="arrow-line"><path class="connection real" stroke-dasharray="" d="  M256.62,127.52 L256.62,148.02" style="stroke: rgb(0, 0, 0); stroke-width: 1; fill: none; fill-opacity: 1;"/></g><g class="arrow-line"><path class="connection real" stroke-dasharray="" d="  M266.87,137.77 L329.7,137.77" style="stroke: rgb(0, 0, 0); stroke-width: 1; fill: none; fill-opacity: 1;"/></g><g class="arrow-line"><path class="connection real" stroke-dasharray="" d="  M329.7,196.93 L329.7,137.77" style="stroke: rgb(0, 0, 0); stroke-width: 1; fill: none; fill-opacity: 1;"/></g><g class="arrow-line"><path class="connection real" stroke-dasharray="" d="  M228.45,204.35 L228.45,189.1" style="stroke: rgb(0, 0, 0); stroke-width: 1; fill: none; fill-opacity: 1;"/></g><g class="arrow-line"><path class="connection real" stroke-dasharray="" d="  M228.45,189.1 L284.83,189.1" style="stroke: rgb(0, 0, 0); stroke-width: 1; fill: none; fill-opacity: 1;"/></g><g class="arrow-line"><path class="connection real" stroke-dasharray="" d="  M228.45,204.35 L284.83,204.35" style="stroke: rgb(0, 0, 0); stroke-width: 1; fill: none; fill-opacity: 1;"/></g><g class="arrow-line"><path class="connection real" stroke-dasharray="" d="  M284.83,204.35 L284.83,189.1" style="stroke: rgb(0, 0, 0); stroke-width: 1; fill: none; fill-opacity: 1;"/></g><g class="arrow-line"><path class="connection real" stroke-dasharray="" d="  M284.83,196.93 L329.7,196.93" style="stroke: rgb(0, 0, 0); stroke-width: 1; fill: none; fill-opacity: 1;"/></g><g class="arrow-line"><path class="connection real" stroke-dasharray="" d="  M274.95,132.85 L309.83,132.85" style="stroke: rgb(245, 166, 35); stroke-opacity: 1; stroke-width: 1; fill: none; fill-opacity: 1;"/><g stroke="none" fill="rgb(245,166,35)" fill-opacity="1" transform="matrix(-1,1.2246467991473532e-16,-1.2246467991473532e-16,-1,311.825,132.84999999999997)" style="stroke: none; fill: rgb(245, 166, 35); stroke-width: 1;"><path d=" M9.6,-2.4 L0,0 L9.6,2.4 Z"/></g></g><g class="arrow-line"><path class="connection real" stroke-dasharray="" d="  M204.7,196.93 L204.58,247.02" style="stroke: rgb(0, 0, 0); stroke-width: 1; fill: none; fill-opacity: 1;"/></g><g class="arrow-line"><path class="connection real" stroke-dasharray="" d="  M307.26,196.93 L307.33,247.02" style="stroke: rgb(0, 0, 0); stroke-width: 1; fill: none; fill-opacity: 1;"/></g><g class="composite-shape"><path class="real" d=" M247.37,247.02 C247.37,241.36 251.96,236.77 257.62,236.77 C263.28,236.77 267.87,241.36 267.87,247.02 C267.87,252.68 263.28,257.27 257.62,257.27 C251.96,257.27 247.37,252.68 247.37,247.02 Z" style="stroke-width: 1; stroke: rgb(0, 0, 0); fill: none; fill-opacity: 1;"/></g><g class="arrow-line"><path class="connection real" stroke-dasharray="" d="  M204.58,247.02 L247.37,247.02" style="stroke: rgb(0, 0, 0); stroke-width: 1; fill: none; fill-opacity: 1;"/></g><g class="arrow-line"><path class="connection real" stroke-dasharray="" d="  M267.87,247.02 L307.33,247.02" style="stroke: rgb(0, 0, 0); stroke-width: 1; fill: none; fill-opacity: 1;"/></g><g class="composite-shape"><path class="real" d=" M202.2,196.93 C202.2,195.55 203.32,194.43 204.7,194.43 C206.08,194.43 207.2,195.55 207.2,196.93 C207.2,198.31 206.08,199.43 204.7,199.43 C203.32,199.43 202.2,198.31 202.2,196.93 Z" style="stroke-width: 1; stroke: none; stroke-opacity: 1; fill: rgb(0, 0, 0); fill-opacity: 1;"/></g><g class="composite-shape"><path class="real" d=" M304.76,196.93 C304.76,195.55 305.88,194.43 307.26,194.43 C308.64,194.43 309.76,195.55 309.76,196.93 C309.76,198.31 308.64,199.43 307.26,199.43 C305.88,199.43 304.76,198.31 304.76,196.93 Z" style="stroke-width: 1; stroke: none; stroke-opacity: 1; fill: rgb(0, 0, 0); fill-opacity: 1;"/></g><g class="arrow-line"><path class="connection real" stroke-dasharray="" d="  M181.03,148.27 L181.03,137.6" style="stroke: rgb(0, 0, 0); stroke-width: 1; fill: none; fill-opacity: 1;"/></g><g class="arrow-line"><path class="connection real" stroke-dasharray="" d="  M278.7,230.85 L234.33,230.85" style="stroke: rgb(74, 144, 226); stroke-opacity: 1; stroke-width: 1; fill: none; fill-opacity: 1;"/><g stroke="none" fill="rgb(74,144,226)" fill-opacity="1" transform="matrix(1,-2.4492935982947064e-16,2.4492935982947064e-16,1,232.325,230.85)" style="stroke: none; fill: rgb(74, 144, 226); stroke-width: 1;"><path d=" M9.6,-2.4 L0,0 L9.6,2.4 Z"/></g></g><g/></g><g/><g/><g/></svg>
        <svg xmlns="http://www.w3.org/2000/svg" xmlns:xlink="http://www.w3.org/1999/xlink" width="360" height="262.796875" style="width:360px;height:262.796875px;font-family:LatinModern-Math, LatinModern, Asana-Math, Asana;background:#FFF;"><g><g><g><g><g><g><g transform="matrix(1,0,0,1,300.1875,22.265625)"><path transform="matrix(0.017,0,0,-0.017,0,0)" d="M848 143C848 153 839 153 836 153C826 153 826 150 821 135C806 82 774 11 719 11C702 11 695 21 695 44C695 69 704 93 713 115C732 167 774 278 774 335C774 400 734 442 659 442C584 442 533 398 496 345C495 358 492 392 464 416C439 437 407 442 382 442C292 442 243 378 226 355C221 412 179 442 134 442C88 442 69 403 60 385C42 350 29 291 29 288C29 278 41 278 41 278C51 278 52 279 58 301C75 372 95 420 131 420C147 420 162 412 162 374C162 353 159 342 146 290L88 59C85 44 79 21 79 16C79 -2 93 -11 108 -11C120 -11 138 -3 145 17C146 19 158 66 164 91L186 181C192 203 198 225 203 248L216 298C231 329 284 420 379 420C424 420 433 383 433 350C433 325 426 297 418 267L390 151C380 114 379 108 370 75C366 55 357 21 357 16C357 -2 371 -11 386 -11C417 -11 423 14 431 46L491 287C494 300 547 420 656 420C699 420 710 386 710 350C710 293 668 179 648 126C639 102 635 91 635 71C635 24 670 -11 717 -11C811 -11 848 135 848 143Z" stroke="rgb(0,0,0)" stroke-opacity="1" stroke-width="0" fill="rgb(0,0,0)" fill-opacity="1"></path></g></g></g></g></g></g></g><g><g><g><g transform="matrix(1,0,0,1,144.6875,210.421875)"><path transform="matrix(0.017,0,0,-0.017,0,0)" d="M756 545C756 619 690 683 570 683L234 683C215 683 205 683 205 663C205 652 214 652 233 652C233 652 254 652 271 650C289 648 298 647 298 634C298 630 297 627 294 615L160 78C150 39 148 31 69 31C52 31 42 31 42 11C42 0 51 0 69 0L426 0C584 0 702 118 702 216C702 288 644 346 547 357C651 376 756 450 756 545ZM665 549C665 461 579 366 457 366L311 366L373 614C382 649 384 652 427 652L556 652C644 652 665 593 665 549ZM609 227C609 128 520 31 402 31L266 31C252 31 250 31 244 32C234 33 231 34 231 42C231 45 231 47 236 65L305 344L494 344C590 344 609 270 609 227Z" stroke="rgb(65,117,5)" stroke-opacity="1" stroke-width="24" fill="rgb(65,117,5)" fill-opacity="1"></path></g></g></g></g><g><g><g><g transform="matrix(1,0,0,1,89.6875,237.421875)"><path transform="matrix(0.017,0,0,-0.017,0,0)" d="M748 653C751 680 746 680 721 680L231 680C211 680 201 680 201 660C201 649 210 649 229 649C266 649 294 649 294 631C294 627 294 625 289 607L157 78C147 39 145 31 66 31C49 31 38 31 38 12C38 0 50 0 53 0L185 3L334 0C343 0 355 0 355 19C355 27 349 30 349 30C346 31 344 31 321 31C299 31 294 31 269 33C240 36 237 40 237 53C237 53 237 61 241 76L303 325L400 325C475 325 483 309 483 280C483 273 483 261 476 231C474 226 473 220 473 220C473 212 479 208 485 208C495 208 495 211 500 229L555 446C558 457 558 459 558 462C558 462 556 473 546 473C536 473 535 468 531 452C510 374 487 356 402 356L311 356L375 610C384 645 385 649 429 649L561 649C684 649 707 616 707 539C707 516 707 512 704 485C702 472 702 470 702 467C702 462 705 455 714 455C725 455 726 461 728 480Z" stroke="rgb(189,16,224)" stroke-opacity="1" stroke-width="24" fill="rgb(189,16,224)" fill-opacity="1"></path></g></g><g><g><g><g><g transform="matrix(1,0,0,1,103.265625,240.43125)"><path transform="matrix(0.0119,0,0,-0.0119,0,0)" d="M430 107C430 113 424 120 418 120C413 120 411 118 405 110C326 11 217 11 205 11C127 11 118 95 118 127C118 139 119 170 134 231L187 231C216 231 290 233 340 254C410 284 415 343 415 357C415 401 377 442 308 442C197 442 46 345 46 170C46 68 105 -11 203 -11C346 -11 430 95 430 107ZM382 357C382 253 222 253 181 253L140 253C179 405 282 420 308 420C355 420 382 391 382 357ZM724 683C724 683 724 694 711 694C688 694 615 686 589 684C581 683 570 682 570 663C570 652 580 652 595 652C643 652 644 643 644 635L641 615L515 115C512 104 510 97 510 81C510 24 554 -11 601 -11C634 -11 659 9 676 45C694 83 706 143 706 143C706 153 697 153 694 153C684 153 683 149 680 135C663 70 644 11 604 11C574 11 574 43 574 57C574 81 575 86 580 105Z" stroke="rgb(189,16,224)" stroke-opacity="1" stroke-width="0" fill="rgb(189,16,224)" fill-opacity="1"></path></g></g></g></g></g></g></g><g><g><g><g transform="matrix(1,0,0,1,285.109375,85.515625)"><path transform="matrix(0.017,0,0,-0.017,0,0)" d="M748 653C751 680 746 680 721 680L231 680C211 680 201 680 201 660C201 649 210 649 229 649C266 649 294 649 294 631C294 627 294 625 289 607L157 78C147 39 145 31 66 31C49 31 38 31 38 12C38 0 50 0 53 0L185 3L334 0C343 0 355 0 355 19C355 27 349 30 349 30C346 31 344 31 321 31C299 31 294 31 269 33C240 36 237 40 237 53C237 53 237 61 241 76L303 325L400 325C475 325 483 309 483 280C483 273 483 261 476 231C474 226 473 220 473 220C473 212 479 208 485 208C495 208 495 211 500 229L555 446C558 457 558 459 558 462C558 462 556 473 546 473C536 473 535 468 531 452C510 374 487 356 402 356L311 356L375 610C384 645 385 649 429 649L561 649C684 649 707 616 707 539C707 516 707 512 704 485C702 472 702 470 702 467C702 462 705 455 714 455C725 455 726 461 728 480Z" stroke="rgb(144,19,254)" stroke-opacity="1" stroke-width="24" fill="rgb(144,19,254)" fill-opacity="1"></path></g></g><g><g><g><g><g transform="matrix(1,0,0,1,298.6875,88.525)"><path transform="matrix(0.0119,0,0,-0.0119,0,0)" d="M474 395C474 412 462 422 445 422C435 422 408 415 404 379C386 416 351 442 311 442C197 442 73 302 73 158C73 59 134 0 206 0C265 0 312 47 322 58L323 57L290 -75C286 -84 252 -183 146 -183C127 -183 94 -182 66 -173C96 -164 107 -138 107 -121C107 -105 96 -86 69 -86C47 -86 15 -104 15 -144C15 -185 52 -205 148 -205C273 -205 345 -127 360 -67L471 377C472 383 474 388 474 395ZM392 334C392 329 390 323 389 319L341 128C335 102 312 77 290 58C269 40 238 22 209 22C159 22 144 74 144 114C144 162 173 280 200 331C227 380 270 420 312 420C378 420 392 339 392 334Z" stroke="rgb(144,19,254)" stroke-opacity="1" stroke-width="0" fill="rgb(144,19,254)" fill-opacity="1"></path></g></g></g></g></g></g></g><g><g><g><g transform="matrix(1,0,0,1,248.546875,180.84375)"><path transform="matrix(0.017,0,0,-0.017,0,0)" d="M646 553C646 519 630 450 591 411C565 385 512 353 422 353L310 353L375 614C381 638 384 648 403 651C412 652 444 652 464 652C535 652 646 652 646 553ZM755 93C755 105 743 105 743 105C734 105 732 98 730 91C705 17 662 0 639 0C606 0 599 22 599 61C599 92 605 143 609 175C611 189 613 208 613 222C613 299 546 330 519 340C620 362 739 432 739 533C739 619 649 683 518 683L233 683C213 683 204 683 204 663C204 652 213 652 232 652C232 652 253 652 270 650C288 648 297 647 297 634C297 630 296 627 293 615L159 78C149 39 147 31 68 31C50 31 41 31 41 11C41 0 55 0 55 0L181 3L308 0C316 0 328 0 328 20C328 31 319 31 300 31C263 31 235 31 235 49C235 55 237 60 238 66L304 331L423 331C514 331 532 275 532 240C532 225 524 194 518 171C511 143 502 106 502 86C502 -22 622 -22 635 -22C720 -22 755 79 755 93Z" stroke="rgb(155,155,155)" stroke-opacity="1" stroke-width="0" fill="rgb(155,155,155)" fill-opacity="1"></path></g></g><g><g><g><g><g transform="matrix(1,0,0,1,261.953125,183.853125)"><path transform="matrix(0.0119,0,0,-0.0119,0,0)" d="M420 356C420 401 377 442 301 442C169 442 132 340 132 296C132 218 206 203 235 197C287 187 339 176 339 121C339 95 316 11 196 11C182 11 105 11 82 64C120 59 145 89 145 117C145 140 129 152 108 152C82 152 52 131 52 86C52 29 109 -11 195 -11C357 -11 396 110 396 155C396 191 377 216 365 228C338 256 309 261 265 270C229 278 189 285 189 330C189 359 213 420 301 420C326 420 376 413 391 374C363 373 343 351 343 329C343 315 352 300 374 300C396 300 420 317 420 356Z" stroke="rgb(155,155,155)" stroke-opacity="1" stroke-width="0" fill="rgb(155,155,155)" fill-opacity="1"></path></g></g></g></g></g></g></g><g><g><g><g transform="matrix(1,0,0,1,282.96875,126.09375)"><path transform="matrix(0.017,0,0,-0.017,0,0)" d="M497 671C497 683 486 683 482 683L350 680L217 683C210 683 197 683 197 663C197 652 206 652 225 652C267 652 294 652 294 633C294 628 294 626 292 617L157 78C148 41 145 31 66 31C43 31 34 31 34 11C34 0 46 0 49 0L180 3L314 0C322 0 334 0 334 19C334 31 326 31 304 31C286 31 281 31 261 33C240 35 236 39 236 50C236 58 238 66 240 73L374 606C383 642 386 652 465 652C489 652 497 652 497 671Z" stroke="rgb(245,166,35)" stroke-opacity="1" stroke-width="0" fill="rgb(245,166,35)" fill-opacity="1"></path></g></g><g><g><g><g><g transform="matrix(1,0,0,1,290.953125,129.103125)"><path transform="matrix(0.0119,0,0,-0.0119,0,0)" d="M420 356C420 401 377 442 301 442C169 442 132 340 132 296C132 218 206 203 235 197C287 187 339 176 339 121C339 95 316 11 196 11C182 11 105 11 82 64C120 59 145 89 145 117C145 140 129 152 108 152C82 152 52 131 52 86C52 29 109 -11 195 -11C357 -11 396 110 396 155C396 191 377 216 365 228C338 256 309 261 265 270C229 278 189 285 189 330C189 359 213 420 301 420C326 420 376 413 391 374C363 373 343 351 343 329C343 315 352 300 374 300C396 300 420 317 420 356Z" stroke="rgb(245,166,35)" stroke-opacity="1" stroke-width="0" fill="rgb(245,166,35)" fill-opacity="1"></path></g></g></g></g></g></g></g><g><g><g><g transform="matrix(1,0,0,1,251.6875,252.09375)"><path transform="matrix(0.015,0,0,-0.015,0,0)" d="M19 652C84 652 103 652 117 614L349 0C356 -19 361 -22 374 -22C391 -22 393 -17 398 -3L621 585C635 622 662 651 730 652L730 683C699 681 659 680 633 680C603 680 545 682 519 683L519 652C571 651 592 625 592 602C592 594 589 588 587 582L404 100L213 605C207 619 207 621 207 623C207 652 264 652 289 652L289 683C253 680 184 680 146 680C98 680 55 682 19 683Z" stroke="rgb(0,0,0)" stroke-opacity="1" stroke-width="0" fill="rgb(0,0,0)" fill-opacity="1"></path></g></g></g></g><g><g><g><g transform="matrix(1,0,0,1,248.59375,223.796875)"><path transform="matrix(0.017,0,0,-0.017,0,0)" d="M760 672C760 672 760 683 747 683C714 683 679 680 645 680C611 680 574 683 541 683C535 683 523 683 523 663C523 652 533 652 541 652C598 651 609 630 609 608C609 605 607 590 606 587L516 230C482 96 367 9 267 9C199 9 145 53 145 139C145 139 145 173 156 217L253 606C262 642 264 652 337 652C363 652 371 652 371 672C371 683 360 683 357 683L229 680L100 683C92 683 81 683 81 663C81 652 90 652 109 652C109 652 130 652 147 650C165 648 174 647 174 634C174 628 163 586 157 563L135 475L74 228C67 200 67 185 67 170C67 48 158 -22 263 -22C389 -22 513 91 546 223L635 578C645 619 663 649 743 652C748 652 760 653 760 672Z" stroke="rgb(74,144,226)" stroke-opacity="1" stroke-width="0" fill="rgb(74,144,226)" fill-opacity="1"></path></g></g><g><g><g><g><g transform="matrix(1,0,0,1,260.71875,226.80625)"><path transform="matrix(0.0119,0,0,-0.0119,0,0)" d="M420 356C420 401 377 442 301 442C169 442 132 340 132 296C132 218 206 203 235 197C287 187 339 176 339 121C339 95 316 11 196 11C182 11 105 11 82 64C120 59 145 89 145 117C145 140 129 152 108 152C82 152 52 131 52 86C52 29 109 -11 195 -11C357 -11 396 110 396 155C396 191 377 216 365 228C338 256 309 261 265 270C229 278 189 285 189 330C189 359 213 420 301 420C326 420 376 413 391 374C363 373 343 351 343 329C343 315 352 300 374 300C396 300 420 317 420 356Z" stroke="rgb(74,144,226)" stroke-opacity="1" stroke-width="0" fill="rgb(74,144,226)" fill-opacity="1"></path></g></g></g></g></g></g></g></svg>
</svg>
