<svg xmlns="http://www.w3.org/2000/svg" xmlns:xlink="http://www.w3.org/1999/xlink" x="0" y="0" width="362" height="264.796875" style="
        width:362px;
        height:264.796875px;
        background: #FFF;
        fill: none;
">
        
        
        <svg xmlns="http://www.w3.org/2000/svg" class="role-diagram-draw-area"><g class="shapes-region" style="stroke: black; fill: none;"><g class="arrow-line"><path class="connection real" stroke-dasharray="" d="  M222.7,67.1 L212.7,87.1" style="stroke: rgb(0, 0, 0); stroke-width: 1; fill: none; fill-opacity: 1;"/></g><g class="arrow-line"><path class="connection real" stroke-dasharray="" d="  M222.7,67.1 L232.7,87.1" style="stroke: rgb(0, 0, 0); stroke-width: 1; fill: none; fill-opacity: 1;"/></g><g class="arrow-line"><path class="connection real" stroke-dasharray="" d="  M198.7,87.1 L246.7,87.1" style="stroke: rgb(0, 0, 0); stroke-width: 1; fill: none; fill-opacity: 1;"/></g><g class="arrow-line"><path class="connection real" stroke-dasharray="" d="  M238.53,93.43 L243.7,87.1" style="stroke: rgb(0, 0, 0); stroke-width: 1; fill: none; fill-opacity: 1;"/></g><g class="composite-shape"><path class="real" d=" M218.87,67.1 C218.87,64.98 220.58,63.27 222.7,63.27 C224.82,63.27 226.53,64.98 226.53,67.1 C226.53,69.22 224.82,70.93 222.7,70.93 C220.58,70.93 218.87,69.22 218.87,67.1 Z" style="stroke-width: 1; stroke: rgb(0, 0, 0); fill: rgb(255, 255, 255); fill-opacity: 1;"/></g><g class="arrow-line"><path class="connection real" stroke-dasharray="" d="  M114.62,62.27 L336.78,62.27" style="stroke: rgb(0, 0, 0); stroke-width: 2; fill: none; fill-opacity: 1;"/></g><g class="composite-shape"><path class="real" d=" M106.95,62.27 C106.95,60.15 108.67,58.43 110.78,58.43 C112.9,58.43 114.62,60.15 114.62,62.27 C114.62,64.38 112.9,66.1 110.78,66.1 C108.67,66.1 106.95,64.38 106.95,62.27 Z" style="stroke-width: 1; stroke: rgb(0, 0, 0); fill: rgb(255, 255, 255); fill-opacity: 1;"/></g><g class="arrow-line"><path class="connection real" stroke-dasharray="" d="  M110.78,66.1 L110.78,150.77" style="stroke: rgb(139, 87, 42); stroke-opacity: 1; stroke-width: 1; fill: none; fill-opacity: 1;"/></g><g class="arrow-line"><path class="connection real" stroke-dasharray="" d="  M198.53,93.43 L203.7,87.1" style="stroke: rgb(0, 0, 0); stroke-width: 1; fill: none; fill-opacity: 1;"/></g><g class="arrow-line"><path class="connection real" stroke-dasharray="" d="  M233.53,93.43 L238.7,87.1" style="stroke: rgb(0, 0, 0); stroke-width: 1; fill: none; fill-opacity: 1;"/></g><g class="arrow-line"><path class="connection real" stroke-dasharray="" d="  M228.53,93.43 L233.7,87.1" style="stroke: rgb(0, 0, 0); stroke-width: 1; fill: none; fill-opacity: 1;"/></g><g class="arrow-line"><path class="connection real" stroke-dasharray="" d="  M223.53,93.43 L228.7,87.1" style="stroke: rgb(0, 0, 0); stroke-width: 1; fill: none; fill-opacity: 1;"/></g><g class="arrow-line"><path class="connection real" stroke-dasharray="" d="  M218.53,93.43 L223.7,87.1" style="stroke: rgb(0, 0, 0); stroke-width: 1; fill: none; fill-opacity: 1;"/></g><g class="arrow-line"><path class="connection real" stroke-dasharray="" d="  M213.53,93.43 L218.7,87.1" style="stroke: rgb(0, 0, 0); stroke-width: 1; fill: none; fill-opacity: 1;"/></g><g class="arrow-line"><path class="connection real" stroke-dasharray="" d="  M208.53,93.43 L213.7,87.1" style="stroke: rgb(0, 0, 0); stroke-width: 1; fill: none; fill-opacity: 1;"/></g><g class="arrow-line"><path class="connection real" stroke-dasharray="" d="  M203.53,93.43 L208.7,87.1" style="stroke: rgb(0, 0, 0); stroke-width: 1; fill: none; fill-opacity: 1;"/></g><g class="arrow-line"><path class="connection real" stroke-dasharray="" d="  M56.03,150.77 L165.53,150.77" style="stroke: rgb(208, 2, 27); stroke-opacity: 1; stroke-width: 1; fill: none; fill-opacity: 1;"/></g><g class="arrow-line"><path class="connection real" stroke-dasharray="" d="  M56.03,183.77 L165.53,183.77" style="stroke: rgb(208, 2, 27); stroke-opacity: 1; stroke-width: 1; fill: none; fill-opacity: 1;"/></g><g class="arrow-line"><path class="connection real" stroke-dasharray="" d="  M165.53,183.77 L165.53,150.77" style="stroke: rgb(208, 2, 27); stroke-opacity: 0.5; stroke-width: 1; fill: none; fill-opacity: 1;"/></g><g class="arrow-line"><path class="connection real" stroke-dasharray="" d="  M56.03,183.77 L56.03,150.77" style="stroke: rgb(208, 2, 27); stroke-opacity: 0.5; stroke-width: 1; fill: none; fill-opacity: 1;"/></g><g class="arrow-line"><path class="connection real" stroke-dasharray="" d="  M56.03,150.77 L165.53,153.43" style="stroke: rgb(208, 2, 27); stroke-opacity: 1; stroke-width: 1; fill: none; fill-opacity: 1;"/></g><g class="arrow-line"><path class="connection real" stroke-dasharray="" d="  M56.03,153.77 L165.53,156.43" style="stroke: rgb(208, 2, 27); stroke-opacity: 1; stroke-width: 1; fill: none; fill-opacity: 1;"/></g><g class="arrow-line"><path class="connection real" stroke-dasharray="" d="  M56.03,156.77 L165.53,159.43" style="stroke: rgb(208, 2, 27); stroke-opacity: 1; stroke-width: 1; fill: none; fill-opacity: 1;"/></g><g class="arrow-line"><path class="connection real" stroke-dasharray="" d="  M56.03,159.77 L165.53,162.43" style="stroke: rgb(208, 2, 27); stroke-opacity: 1; stroke-width: 1; fill: none; fill-opacity: 1;"/></g><g class="arrow-line"><path class="connection real" stroke-dasharray="" d="  M56.03,162.77 L165.53,165.43" style="stroke: rgb(208, 2, 27); stroke-opacity: 1; stroke-width: 1; fill: none; fill-opacity: 1;"/></g><g class="arrow-line"><path class="connection real" stroke-dasharray="" d="  M56.03,165.77 L165.53,168.43" style="stroke: rgb(208, 2, 27); stroke-opacity: 1; stroke-width: 1; fill: none; fill-opacity: 1;"/></g><g class="arrow-line"><path class="connection real" stroke-dasharray="" d="  M56.03,168.77 L165.53,171.43" style="stroke: rgb(208, 2, 27); stroke-opacity: 1; stroke-width: 1; fill: none; fill-opacity: 1;"/></g><g class="arrow-line"><path class="connection real" stroke-dasharray="" d="  M56.03,171.77 L165.53,174.43" style="stroke: rgb(208, 2, 27); stroke-opacity: 1; stroke-width: 1; fill: none; fill-opacity: 1;"/></g><g class="arrow-line"><path class="connection real" stroke-dasharray="" d="  M56.03,174.77 L165.53,177.43" style="stroke: rgb(208, 2, 27); stroke-opacity: 1; stroke-width: 1; fill: none; fill-opacity: 1;"/></g><g class="arrow-line"><path class="connection real" stroke-dasharray="" d="  M56.03,177.77 L165.53,180.43" style="stroke: rgb(208, 2, 27); stroke-opacity: 1; stroke-width: 1; fill: none; fill-opacity: 1;"/></g><g class="arrow-line"><path class="connection real" stroke-dasharray="" d="  M56.03,180.77 L165.53,183.43" style="stroke: rgb(208, 2, 27); stroke-opacity: 1; stroke-width: 1; fill: none; fill-opacity: 1;"/></g><g class="arrow-line"><path class="connection real" stroke-dasharray="" d="  M145.7,142.1 L183.7,142.1" style="stroke: rgb(65, 117, 5); stroke-opacity: 1; stroke-width: 1; fill: none; fill-opacity: 1;"/><g stroke="none" fill="rgb(65,117,5)" fill-opacity="1" transform="matrix(-1,1.2246467991473532e-16,-1.2246467991473532e-16,-1,185.69999999999996,142.09999999999997)" style="stroke: none; fill: rgb(65, 117, 5); stroke-width: 1;"><path d=" M9.6,-2.4 L0,0 L9.6,2.4 Z"/></g></g><g class="arrow-line"><path class="connection real" stroke-dasharray="" d="  M145.7,192.1 L183.7,192.1" style="stroke: rgb(65, 117, 5); stroke-opacity: 1; stroke-width: 1; fill: none; fill-opacity: 1;"/><g stroke="none" fill="rgb(65,117,5)" fill-opacity="1" transform="matrix(-1,1.2246467991473532e-16,-1.2246467991473532e-16,-1,185.69999999999996,192.09999999999997)" style="stroke: none; fill: rgb(65, 117, 5); stroke-width: 1;"><path d=" M9.6,-2.4 L0,0 L9.6,2.4 Z"/></g></g><g class="arrow-line"><path class="connection real" stroke-dasharray="" d="  M75.7,142.1 L37.7,142.1" style="stroke: rgb(65, 117, 5); stroke-opacity: 1; stroke-width: 1; fill: none; fill-opacity: 1;"/><g stroke="none" fill="rgb(65,117,5)" fill-opacity="1" transform="matrix(1,-2.4492935982947064e-16,2.4492935982947064e-16,1,35.69999999999999,142.1)" style="stroke: none; fill: rgb(65, 117, 5); stroke-width: 1;"><path d=" M9.6,-2.4 L0,0 L9.6,2.4 Z"/></g></g><g class="arrow-line"><path class="connection real" stroke-dasharray="" d="  M75.7,192.1 L37.7,192.1" style="stroke: rgb(65, 117, 5); stroke-opacity: 1; stroke-width: 1; fill: none; fill-opacity: 1;"/><g stroke="none" fill="rgb(65,117,5)" fill-opacity="1" transform="matrix(1,-2.4492935982947064e-16,2.4492935982947064e-16,1,35.69999999999999,192.1)" style="stroke: none; fill: rgb(65, 117, 5); stroke-width: 1;"><path d=" M9.6,-2.4 L0,0 L9.6,2.4 Z"/></g></g><g class="arrow-line"><path class="connection real" stroke-dasharray="" d="  M145.7,167.1 L183.7,167.1" style="stroke: rgb(65, 117, 5); stroke-opacity: 1; stroke-width: 1; fill: none; fill-opacity: 1;"/><g stroke="none" fill="rgb(65,117,5)" fill-opacity="1" transform="matrix(-1,1.2246467991473532e-16,-1.2246467991473532e-16,-1,185.69999999999996,167.09999999999997)" style="stroke: none; fill: rgb(65, 117, 5); stroke-width: 1;"><path d=" M9.6,-2.4 L0,0 L9.6,2.4 Z"/></g></g><g class="arrow-line"><path class="connection real" stroke-dasharray="" d="  M75.7,167.1 L37.7,167.1" style="stroke: rgb(65, 117, 5); stroke-opacity: 1; stroke-width: 1; fill: none; fill-opacity: 1;"/><g stroke="none" fill="rgb(65,117,5)" fill-opacity="1" transform="matrix(1,-2.4492935982947064e-16,2.4492935982947064e-16,1,35.69999999999999,167.1)" style="stroke: none; fill: rgb(65, 117, 5); stroke-width: 1;"><path d=" M9.6,-2.4 L0,0 L9.6,2.4 Z"/></g></g><g class="arrow-line"><path class="connection real" stroke-dasharray="" d="  M165.53,150.77 C173.7,151.27 179.37,156.93 189.53,150.77" style="stroke: rgb(0, 0, 0); stroke-width: 1; fill: none; fill-opacity: 1;"/></g><g class="arrow-line"><path class="connection real" stroke-dasharray="" d="  M165.53,183.43 C173.7,183.93 179.03,177.6 189.53,183.43" style="stroke: rgb(0, 0, 0); stroke-width: 1; fill: none; fill-opacity: 1;"/></g><g class="composite-shape"><path class="real" d=" M189.53,150.77 C189.53,149.39 190.65,148.27 192.03,148.27 C193.41,148.27 194.53,149.39 194.53,150.77 C194.53,152.15 193.41,153.27 192.03,153.27 C190.65,153.27 189.53,152.15 189.53,150.77 Z" style="stroke-width: 1; stroke: rgb(0, 0, 0); fill: rgb(255, 255, 255); fill-opacity: 1;"/></g><g class="composite-shape"><path class="real" d=" M189.53,183.43 C189.53,182.05 190.65,180.93 192.03,180.93 C193.41,180.93 194.53,182.05 194.53,183.43 C194.53,184.81 193.41,185.93 192.03,185.93 C190.65,185.93 189.53,184.81 189.53,183.43 Z" style="stroke-width: 1; stroke: rgb(0, 0, 0); fill: rgb(255, 255, 255); fill-opacity: 1;"/></g><g class="arrow-line"><path class="connection real" stroke-dasharray="" d="  M192.03,185.93 L192.03,196.93" style="stroke: rgb(0, 0, 0); stroke-width: 1; fill: none; fill-opacity: 1;"/></g><g class="composite-shape"><path class="real" d=" M242.77,167.22 C242.77,161.56 247.36,156.97 253.02,156.97 C258.68,156.97 263.27,161.56 263.27,167.22 C263.27,172.88 258.68,177.47 253.02,177.47 C247.36,177.47 242.77,172.88 242.77,167.22 Z" style="stroke-width: 1; stroke: rgb(0, 0, 0); fill: none; fill-opacity: 1;"/></g><g class="arrow-line"><path class="connection real" stroke-dasharray="" d="  M192.03,197.23 L253.02,197.03" style="stroke: rgb(0, 0, 0); stroke-width: 1; fill: none; fill-opacity: 1;"/></g><g class="arrow-line"><path class="connection real" stroke-dasharray="" d="  M192.03,148.27 L192.03,137.6" style="stroke: rgb(0, 0, 0); stroke-width: 1; fill: none; fill-opacity: 1;"/></g><g class="arrow-line"><path class="connection real" stroke-dasharray="" d="  M269.7,148.45 L269.7,187" style="stroke: rgb(74, 144, 226); stroke-opacity: 1; stroke-width: 1; fill: none; fill-opacity: 1;"/><g stroke="none" fill="rgb(74,144,226)" fill-opacity="1" transform="matrix(-1.8369701987210297e-16,-1,1,-1.8369701987210297e-16,269.70000000000005,189)" style="stroke: none; fill: rgb(74, 144, 226); stroke-width: 1;"><path d=" M9.6,-2.4 L0,0 L9.6,2.4 Z"/></g><g stroke="none" fill="rgb(74,144,226)" fill-opacity="1" transform="matrix(6.123233995736766e-17,1,-1,6.123233995736766e-17,269.70000000000005,146.45000000000002)" style="stroke: none; fill: rgb(74, 144, 226); stroke-width: 1;"><path d=" M9.6,-2.4 L0,0 L9.6,2.4 Z"/></g></g><g class="arrow-line"><path class="connection real" stroke-dasharray="" d="  M341.28,14.38 C345.77,33.49 349.02,45.26 348.78,62.27 C348.54,79.36 345.24,91.64 341.16,110.5" style="stroke: rgb(0, 0, 0); stroke-width: 1; fill: none; fill-opacity: 1;"/><g stroke="none" fill="#000" transform="matrix(0.22699127537085018,0.9738967917112752,-0.9738967917112752,0.22699127537085018,340.7833333333333,12.266666666666652)" style="stroke: none; fill: rgb(0, 0, 0); stroke-width: 1;"><path d=" M7.2,-1.8 L0,0 L7.2,1.8 Z"/></g><g stroke="none" fill="#000" transform="matrix(0.20910656808758862,-0.9778928587440603,0.9778928587440603,0.20910656808758862,340.7833333333333,112.26666666666665)" style="stroke: none; fill: rgb(0, 0, 0); stroke-width: 1;"><path d=" M7.2,-1.8 L0,0 L7.2,1.8 Z"/></g></g><g class="arrow-line"><path class="connection real" stroke-dasharray="" d="  M26.7,127.38 L26.7,206.83" style="stroke: rgb(144, 19, 254); stroke-opacity: 1; stroke-width: 1; fill: none; fill-opacity: 1;"/><g stroke="none" fill="rgb(144,19,254)" fill-opacity="1" transform="matrix(-1.8369701987210297e-16,-1,1,-1.8369701987210297e-16,26.69999999999999,208.825)" style="stroke: none; fill: rgb(144, 19, 254); stroke-width: 1;"><path d=" M9.6,-2.4 L0,0 L9.6,2.4 Z"/></g><g stroke="none" fill="rgb(144,19,254)" fill-opacity="1" transform="matrix(6.123233995736766e-17,1,-1,6.123233995736766e-17,26.69999999999999,125.375)" style="stroke: none; fill: rgb(144, 19, 254); stroke-width: 1;"><path d=" M9.6,-2.4 L0,0 L9.6,2.4 Z"/></g></g><g class="arrow-line"><path class="connection real" stroke-dasharray="" d="  M253.02,137.4 L253.02,156.97" style="stroke: rgb(0, 0, 0); stroke-width: 1; fill: none; fill-opacity: 1;"/></g><g class="arrow-line"><path class="connection real" stroke-dasharray="" d="  M253.02,177.47 L253.02,197.03" style="stroke: rgb(0, 0, 0); stroke-width: 1; fill: none; fill-opacity: 1;"/></g><g class="arrow-line"><path class="connection real" stroke-dasharray="" d="  M192.03,137.6 L253.02,137.4" style="stroke: rgb(0, 0, 0); stroke-width: 1; fill: none; fill-opacity: 1;"/></g><g class="arrow-line"><path class="connection real" stroke-dasharray="1.125 3.35" d="  M56.75,108.43 L100.78,108.43" style="stroke: rgb(0, 0, 0); stroke-width: 1; fill: none; fill-opacity: 1;"/></g><g class="arrow-line"><path class="connection real" stroke-dasharray="1.125 3.35" d="  M56.75,226.1 L100.78,226.1" style="stroke: rgb(0, 0, 0); stroke-width: 1; fill: none; fill-opacity: 1;"/></g><g class="arrow-line"><path class="connection real" stroke-dasharray="1.125 3.35" d="  M305.83,167.1 L333.82,167.1" style="stroke: rgb(0, 0, 0); stroke-width: 1; fill: none; fill-opacity: 1;"/></g><g class="arrow-line"><path class="connection real" stroke-dasharray="1.125 3.35" d="  M110.78,51.27 L110.78,17.33" style="stroke: rgb(0, 0, 0); stroke-width: 1; fill: none; fill-opacity: 1;"/><g stroke="none" fill="#000" transform="matrix(3.061616997868383e-16,1,-1,3.061616997868383e-16,110.7833333333333,15.333333333333343)" style="stroke: none; fill: rgb(0, 0, 0); stroke-width: 1;"><path d=" M9.6,-2.4 L0,0 L9.6,2.4 Z"/></g></g><g/></g><g/><g/><g/></svg>
        <svg xmlns="http://www.w3.org/2000/svg" xmlns:xlink="http://www.w3.org/1999/xlink" width="360" height="262.796875" style="width:360px;height:262.796875px;font-family:LatinModern-Math, LatinModern, Asana-Math, Asana;background:#FFF;"><g><g><g><g transform="matrix(1,0,0,1,155.6875,210.421875)"><path transform="matrix(0.017,0,0,-0.017,0,0)" d="M756 545C756 619 690 683 570 683L234 683C215 683 205 683 205 663C205 652 214 652 233 652C233 652 254 652 271 650C289 648 298 647 298 634C298 630 297 627 294 615L160 78C150 39 148 31 69 31C52 31 42 31 42 11C42 0 51 0 69 0L426 0C584 0 702 118 702 216C702 288 644 346 547 357C651 376 756 450 756 545ZM665 549C665 461 579 366 457 366L311 366L373 614C382 649 384 652 427 652L556 652C644 652 665 593 665 549ZM609 227C609 128 520 31 402 31L266 31C252 31 250 31 244 32C234 33 231 34 231 42C231 45 231 47 236 65L305 344L494 344C590 344 609 270 609 227Z" stroke="rgb(65,117,5)" stroke-opacity="1" stroke-width="24" fill="rgb(65,117,5)" fill-opacity="1"></path></g></g></g></g><g><g><g><g transform="matrix(1,0,0,1,247.09375,172.296875)"><path transform="matrix(0.015,0,0,-0.015,0,0)" d="M19 652C84 652 103 652 117 614L349 0C356 -19 361 -22 374 -22C391 -22 393 -17 398 -3L621 585C635 622 662 651 730 652L730 683C699 681 659 680 633 680C603 680 545 682 519 683L519 652C571 651 592 625 592 602C592 594 589 588 587 582L404 100L213 605C207 619 207 621 207 623C207 652 264 652 289 652L289 683C253 680 184 680 146 680C98 680 55 682 19 683Z" stroke="rgb(0,0,0)" stroke-opacity="1" stroke-width="0" fill="rgb(0,0,0)" fill-opacity="1"></path></g></g></g></g><g><g><g><g transform="matrix(1,0,0,1,12.59375,171.796875)"><path transform="matrix(0.017,0,0,-0.017,0,0)" d="M468 372C468 426 442 442 424 442C399 442 375 416 375 394C375 381 380 375 391 364C412 344 425 318 425 282C425 240 364 11 247 11C196 11 173 46 173 98C173 154 200 227 231 310C238 327 243 341 243 360C243 405 211 442 161 442C67 442 29 297 29 288C29 278 41 278 41 278C51 278 52 280 57 296C86 397 129 420 158 420C166 420 183 420 183 388C183 363 173 336 166 318C122 202 109 156 109 113C109 5 197 -11 243 -11C411 -11 468 320 468 372Z" stroke="rgb(144,19,254)" stroke-opacity="1" stroke-width="24" fill="rgb(144,19,254)" fill-opacity="1"></path></g></g></g></g><g><g><g><g transform="matrix(1,0,0,1,274.1875,172)"><path transform="matrix(0.017,0,0,-0.017,0,0)" d="M760 672C760 672 760 683 747 683C714 683 679 680 645 680C611 680 574 683 541 683C535 683 523 683 523 663C523 652 533 652 541 652C598 651 609 630 609 608C609 605 607 590 606 587L516 230C482 96 367 9 267 9C199 9 145 53 145 139C145 139 145 173 156 217L253 606C262 642 264 652 337 652C363 652 371 652 371 672C371 683 360 683 357 683L229 680L100 683C92 683 81 683 81 663C81 652 90 652 109 652C109 652 130 652 147 650C165 648 174 647 174 634C174 628 163 586 157 563L135 475L74 228C67 200 67 185 67 170C67 48 158 -22 263 -22C389 -22 513 91 546 223L635 578C645 619 663 649 743 652C748 652 760 653 760 672Z" stroke="rgb(74,144,226)" stroke-opacity="1" stroke-width="0" fill="rgb(74,144,226)" fill-opacity="1"></path></g></g><g><g><g><g><g transform="matrix(1,0,0,1,286.3125,175.009375)"><path transform="matrix(0.0119,0,0,-0.0119,0,0)" d="M516 683C516 683 516 694 503 694C488 694 393 685 376 683C368 682 362 677 362 664C362 652 371 652 386 652C434 652 436 645 436 635L433 615L373 378C355 415 326 442 281 442C164 442 40 295 40 149C40 55 95 -11 173 -11C193 -11 243 -7 303 64C311 22 346 -11 394 -11C429 -11 452 12 468 44C485 80 498 143 498 143C498 153 489 153 486 153C476 153 475 149 472 135C455 70 437 11 396 11C369 11 366 37 366 57C366 81 368 88 372 105ZM361 332C361 326 359 320 358 315L308 119C303 101 303 99 288 82C244 27 203 11 175 11C125 11 111 66 111 105C111 155 143 278 166 324C197 383 242 420 282 420C347 420 361 338 361 332Z" stroke="rgb(74,144,226)" stroke-opacity="1" stroke-width="0" fill="rgb(74,144,226)" fill-opacity="1"></path></g></g></g></g></g></g></g><g><g><g><g transform="matrix(1,0,0,1,38,229)"><path transform="matrix(0.017,0,0,-0.017,0,0)" d="M467 432C467 442 456 442 456 442C449 442 446 440 441 431C411 383 390 367 366 367C342 367 330 382 315 399C296 422 279 442 246 442C171 442 125 349 125 328C125 323 128 317 137 317C146 317 148 322 150 328C169 374 227 375 235 375C256 375 275 368 298 360C338 345 349 345 375 345C339 302 255 230 236 214L146 130C78 63 43 6 43 -1C43 -11 55 -11 55 -11C63 -11 65 -9 71 2C94 37 124 64 156 64C179 64 189 55 214 26C231 5 249 -11 278 -11C377 -11 435 116 435 143C435 148 431 153 423 153C414 153 412 147 409 140C386 75 322 56 289 56C269 56 251 62 230 69C196 82 181 86 160 86C160 86 142 86 133 83C187 141 216 166 252 197C252 197 314 251 350 287C445 380 467 428 467 432Z" stroke="rgb(0,0,0)" stroke-opacity="1" stroke-width="0" fill="rgb(0,0,0)" fill-opacity="1"></path></g></g><g><g><g><g><g transform="matrix(1,0,0,1,46.40625,232.009375)"><path transform="matrix(0.0119,0,0,-0.0119,0,0)" d="M420 356C420 401 377 442 301 442C169 442 132 340 132 296C132 218 206 203 235 197C287 187 339 176 339 121C339 95 316 11 196 11C182 11 105 11 82 64C120 59 145 89 145 117C145 140 129 152 108 152C82 152 52 131 52 86C52 29 109 -11 195 -11C357 -11 396 110 396 155C396 191 377 216 365 228C338 256 309 261 265 270C229 278 189 285 189 330C189 359 213 420 301 420C326 420 376 413 391 374C363 373 343 351 343 329C343 315 352 300 374 300C396 300 420 317 420 356Z" stroke="rgb(0,0,0)" stroke-opacity="1" stroke-width="0" fill="rgb(0,0,0)" fill-opacity="1"></path></g></g></g></g></g></g></g><g><g><g><g transform="matrix(1,0,0,1,39.328125,112.125)"><path transform="matrix(0.017,0,0,-0.017,0,0)" d="M467 432C467 442 456 442 456 442C449 442 446 440 441 431C411 383 390 367 366 367C342 367 330 382 315 399C296 422 279 442 246 442C171 442 125 349 125 328C125 323 128 317 137 317C146 317 148 322 150 328C169 374 227 375 235 375C256 375 275 368 298 360C338 345 349 345 375 345C339 302 255 230 236 214L146 130C78 63 43 6 43 -1C43 -11 55 -11 55 -11C63 -11 65 -9 71 2C94 37 124 64 156 64C179 64 189 55 214 26C231 5 249 -11 278 -11C377 -11 435 116 435 143C435 148 431 153 423 153C414 153 412 147 409 140C386 75 322 56 289 56C269 56 251 62 230 69C196 82 181 86 160 86C160 86 142 86 133 83C187 141 216 166 252 197C252 197 314 251 350 287C445 380 467 428 467 432Z" stroke="rgb(0,0,0)" stroke-opacity="1" stroke-width="0" fill="rgb(0,0,0)" fill-opacity="1"></path></g></g><g><g><g><g><g transform="matrix(1,0,0,1,47.734375,115.134375)"><path transform="matrix(0.0119,0,0,-0.0119,0,0)" d="M430 107C430 113 424 120 418 120C413 120 411 118 405 110C326 11 217 11 205 11C127 11 118 95 118 127C118 139 119 170 134 231L187 231C216 231 290 233 340 254C410 284 415 343 415 357C415 401 377 442 308 442C197 442 46 345 46 170C46 68 105 -11 203 -11C346 -11 430 95 430 107ZM382 357C382 253 222 253 181 253L140 253C179 405 282 420 308 420C355 420 382 391 382 357Z" stroke="rgb(0,0,0)" stroke-opacity="1" stroke-width="0" fill="rgb(0,0,0)" fill-opacity="1"></path></g></g></g></g></g></g></g><g><g><g><g transform="matrix(1,0,0,1,338.328125,170.796875)"><path transform="matrix(0.017,0,0,-0.017,0,0)" d="M467 432C467 442 456 442 456 442C449 442 446 440 441 431C411 383 390 367 366 367C342 367 330 382 315 399C296 422 279 442 246 442C171 442 125 349 125 328C125 323 128 317 137 317C146 317 148 322 150 328C169 374 227 375 235 375C256 375 275 368 298 360C338 345 349 345 375 345C339 302 255 230 236 214L146 130C78 63 43 6 43 -1C43 -11 55 -11 55 -11C63 -11 65 -9 71 2C94 37 124 64 156 64C179 64 189 55 214 26C231 5 249 -11 278 -11C377 -11 435 116 435 143C435 148 431 153 423 153C414 153 412 147 409 140C386 75 322 56 289 56C269 56 251 62 230 69C196 82 181 86 160 86C160 86 142 86 133 83C187 141 216 166 252 197C252 197 314 251 350 287C445 380 467 428 467 432Z" stroke="rgb(0,0,0)" stroke-opacity="1" stroke-width="0" fill="rgb(0,0,0)" fill-opacity="1"></path></g></g><g><g><g><g><g transform="matrix(1,0,0,1,346.734375,173.80625)"><path transform="matrix(0.0119,0,0,-0.0119,0,0)" d="M691 372C691 427 664 442 647 442C622 442 597 416 597 394C597 381 603 375 612 367C623 356 648 330 648 282C648 248 619 150 593 99C567 46 532 11 483 11C436 11 409 41 409 98C409 126 416 157 420 171L462 339C467 361 477 398 477 404C477 422 463 431 448 431C436 431 418 423 411 403C408 396 361 205 354 179C347 149 345 131 345 113C345 102 345 100 346 95C323 42 293 11 254 11C174 11 174 85 174 102C174 134 179 173 226 296C237 326 243 340 243 360C243 405 210 442 161 442C66 442 29 297 29 288C29 278 41 278 41 278C51 278 52 280 57 296C84 389 123 420 158 420C167 420 183 419 183 387C183 362 172 334 165 317C121 199 109 153 109 115C109 24 176 -11 251 -11C268 -11 315 -11 355 59C381 -5 450 -11 480 -11C555 -11 599 52 625 112C659 190 691 324 691 372Z" stroke="rgb(0,0,0)" stroke-opacity="1" stroke-width="0" fill="rgb(0,0,0)" fill-opacity="1"></path></g></g></g></g></g></g></g><g><g><g><g transform="matrix(1,0,0,1,97.65625,19.65625)"><path transform="matrix(0.017,0,0,-0.017,0,0)" d="M467 432C467 442 456 442 456 442C449 442 446 440 441 431C411 383 390 367 366 367C342 367 330 382 315 399C296 422 279 442 246 442C171 442 125 349 125 328C125 323 128 317 137 317C146 317 148 322 150 328C169 374 227 375 235 375C256 375 275 368 298 360C338 345 349 345 375 345C339 302 255 230 236 214L146 130C78 63 43 6 43 -1C43 -11 55 -11 55 -11C63 -11 65 -9 71 2C94 37 124 64 156 64C179 64 189 55 214 26C231 5 249 -11 278 -11C377 -11 435 116 435 143C435 148 431 153 423 153C414 153 412 147 409 140C386 75 322 56 289 56C269 56 251 62 230 69C196 82 181 86 160 86C160 86 142 86 133 83C187 141 216 166 252 197C252 197 314 251 350 287C445 380 467 428 467 432Z" stroke="rgb(0,0,0)" stroke-opacity="1" stroke-width="0" fill="rgb(0,0,0)" fill-opacity="1"></path></g></g></g></g></svg>
</svg>
