<svg xmlns="http://www.w3.org/2000/svg" xmlns:xlink="http://www.w3.org/1999/xlink" x="0" y="0" width="432" height="209.578125" style="
        width:432px;
        height:209.578125px;
        background: #FFF;
        fill: none;
">
        
        
        <svg xmlns="http://www.w3.org/2000/svg" class="role-diagram-draw-area"><g class="shapes-region" style="stroke: black; fill: none;"><g class="arrow-line"><path class="connection real" stroke-dasharray="" d="  M299.88,86.32 C206.02,116.49 202.67,45.54 115.52,122.08 C28.37,198.61 -18.55,77.38 99.88,34.93 C218.31,-7.53 171.95,50.01 297.64,15.93 C423.34,-18.15 406.58,50.57 299.88,86.32 Z" style="stroke: rgb(0, 0, 0); stroke-width: 1; fill: none; fill-opacity: 1;"/></g><g class="arrow-line"><path class="connection real" stroke-dasharray="" d="  M76.42,89.67 L20.85,34.66" style="stroke: rgb(0, 0, 0); stroke-width: 1; fill: none; fill-opacity: 1;"/><g stroke="none" fill="#000" transform="matrix(0.7105538995034961,0.7036427757750203,-0.7036427757750203,0.7105538995034961,19.43352095097063,33.24990299608092)" style="stroke: none; fill: rgb(0, 0, 0); stroke-width: 1;"><path d=" M9.6,-2.4 L0,0 L9.6,2.4 Z"/></g></g><g class="arrow-line"><path class="connection real" stroke-dasharray="1.125 3.35" d="  M299.88,140.79 C206.02,170.96 202.67,100.01 115.52,176.54 C28.37,253.08 -18.55,131.85 99.88,89.39 C218.31,46.94 171.95,104.48 297.64,70.4 C423.34,36.32 406.58,105.04 299.88,140.79 Z" style="stroke: rgb(0, 0, 0); stroke-width: 1; fill: none; fill-opacity: 1;"/></g><g class="arrow-line"><path class="connection real" stroke-dasharray="" d="  M310.21,82.9 L310.21,136.95" style="stroke: rgb(208, 2, 27); stroke-opacity: 1; stroke-width: 1; fill: none; fill-opacity: 1;"/></g><g class="arrow-line"><path class="connection real" stroke-dasharray="" d="  M350.02,64.39 L350.02,118.44" style="stroke: rgb(208, 2, 27); stroke-opacity: 1; stroke-width: 1; fill: none; fill-opacity: 1;"/></g><g class="arrow-line"><path class="connection real" stroke-dasharray="" d="  M310.21,136.95 C321.04,133.11 323.83,131.36 331.51,127.87 C339.19,124.38 341.64,122.98 350.02,118.44" style="stroke: rgb(208, 2, 27); stroke-opacity: 1; stroke-width: 1; fill: none; fill-opacity: 1;"/></g><g class="arrow-line"><path class="connection real" stroke-dasharray="" d="  M249.55,99.53 L249.55,140.73" style="stroke: rgb(0, 0, 0); stroke-width: 1; fill: none; fill-opacity: 1;"/><g stroke="none" fill="#000" transform="matrix(-1.8369701987210297e-16,-1,1,-1.8369701987210297e-16,249.55169061976795,142.73272940835736)" style="stroke: none; fill: rgb(0, 0, 0); stroke-width: 1;"><path d=" M9.6,-2.4 L0,0 L9.6,2.4 Z"/></g></g><g class="arrow-line"><path class="connection real" stroke-dasharray="" d="  M330.6,102.71 L378.82,117.42" style="stroke: rgb(208, 2, 27); stroke-opacity: 1; stroke-width: 1; fill: none; fill-opacity: 1;"/><g stroke="none" fill="rgb(208,2,27)" fill-opacity="1" transform="matrix(-0.956508636856278,-0.2917040068619986,0.2917040068619986,-0.956508636856278,380.7333333333333,118.00000000000003)" style="stroke: none; fill: rgb(208, 2, 27); stroke-width: 1;"><path d=" M9.6,-2.4 L0,0 L9.6,2.4 Z"/></g></g><g class="arrow-line"><path class="connection real" stroke-dasharray="" d="  M383.89,31.86 L392.33,10.53" style="stroke: rgb(74, 144, 226); stroke-opacity: 1; stroke-width: 1; fill: none; fill-opacity: 1;"/><g stroke="none" fill="rgb(74,144,226)" fill-opacity="1" transform="matrix(-0.3679622704687791,0.9298407215816379,-0.9298407215816379,-0.3679622704687791,393.06666666666666,8.666666666666686)" style="stroke: none; fill: rgb(74, 144, 226); stroke-width: 1;"><path d=" M9.6,-2.4 L0,0 L9.6,2.4 Z"/></g></g><g class="arrow-line"><path class="connection real" stroke-dasharray="" d="  M310.21,82.9 C321.04,79.06 323.83,77.31 331.51,73.82 C339.19,70.33 341.64,68.93 350.02,64.39" style="stroke: rgb(208, 2, 27); stroke-opacity: 1; stroke-width: 1; fill: none; fill-opacity: 1;"/></g><g/></g><g/><g/><g/></svg>
        <svg xmlns="http://www.w3.org/2000/svg" xmlns:xlink="http://www.w3.org/1999/xlink" width="430" height="207.578125" style="width:430px;height:207.578125px;font-family:LatinModern-Math, LatinModern, Asana-Math, Asana;background:#FFF;"><g><g><g><g transform="matrix(1,0,0,1,25.9375,32.484375)"><path transform="matrix(0.017,0,0,-0.017,0,0)" d="M527 0L527 31C457 31 449 38 449 87L449 694L305 683L305 652C375 652 383 645 383 596L383 380C354 416 311 442 257 442C139 442 34 344 34 215C34 88 132 -11 246 -11C310 -11 355 23 380 55L380 -11ZM380 118C380 100 380 98 369 81C339 33 294 11 251 11C206 11 170 37 146 75C120 116 117 173 117 214C117 251 119 311 148 356C169 387 207 420 261 420C296 420 338 405 369 360C380 343 380 341 380 323Z" stroke="rgb(0,0,0)" stroke-opacity="1" stroke-width="0" fill="rgb(0,0,0)" fill-opacity="1"></path></g></g><g><g transform="matrix(1,0,0,1,35.390625,32.484375)"><path transform="matrix(0.017,0,0,-0.017,0,0)" d="M645 695C645 698 643 705 634 705C629 705 628 704 616 690L568 633C542 680 490 705 425 705C298 705 178 590 178 469C178 388 231 342 282 327L389 299C426 290 481 275 481 193C481 103 399 9 301 9C237 9 126 31 126 155C126 179 131 203 132 209C133 213 134 216 134 216C134 226 127 227 122 227C117 227 115 226 112 223C108 219 52 -9 52 -12C52 -18 57 -22 63 -22C68 -22 69 -21 81 -7L130 50C173 -8 241 -22 299 -22C435 -22 553 111 553 235C553 304 519 338 504 352C481 375 466 379 377 402L310 420C283 429 249 458 249 511C249 592 329 677 424 677C507 677 568 634 568 522C568 490 564 472 564 466C564 466 564 456 576 456C586 456 587 459 591 476Z" stroke="rgb(0,0,0)" stroke-opacity="1" stroke-width="24" fill="rgb(0,0,0)" fill-opacity="1"></path></g></g></g></g><g><g><g><g transform="matrix(1,0,0,1,255.921875,122.53125)"><path transform="matrix(0.017,0,0,-0.017,0,0)" d="M468 372C468 426 442 442 424 442C399 442 375 416 375 394C375 381 380 375 391 364C412 344 425 318 425 282C425 240 364 11 247 11C196 11 173 46 173 98C173 154 200 227 231 310C238 327 243 341 243 360C243 405 211 442 161 442C67 442 29 297 29 288C29 278 41 278 41 278C51 278 52 280 57 296C86 397 129 420 158 420C166 420 183 420 183 388C183 363 173 336 166 318C122 202 109 156 109 113C109 5 197 -11 243 -11C411 -11 468 320 468 372Z" stroke="rgb(0,0,0)" stroke-opacity="1" stroke-width="24" fill="rgb(0,0,0)" fill-opacity="1"></path></g></g><g><g transform="matrix(1,0,0,1,264.171875,122.53125)"><path transform="matrix(0.017,0,0,-0.017,0,0)" d="M332 -238C332 -235 330 -232 328 -230C224 -152 155 48 155 208L155 292C155 452 224 652 328 730C330 732 332 735 332 738C332 743 327 748 322 748C320 748 318 747 316 746C206 663 101 463 101 292L101 208C101 37 206 -163 316 -246C318 -247 320 -248 322 -248C327 -248 332 -243 332 -238Z" stroke="rgb(0,0,0)" stroke-opacity="1" stroke-width="0" fill="rgb(0,0,0)" fill-opacity="1"></path></g></g><g><g transform="matrix(1,0,0,1,270.796875,122.53125)"><path transform="matrix(0.017,0,0,-0.017,0,0)" d="M436 377C436 412 404 442 353 442C288 442 244 393 225 365C217 410 181 442 134 442C88 442 69 403 60 385C42 351 29 291 29 288C29 278 41 278 41 278C51 278 52 279 58 301C75 372 95 420 131 420C148 420 162 412 162 374C162 353 159 342 146 290L88 59C85 44 79 21 79 16C79 -2 93 -11 108 -11C120 -11 138 -3 145 17C147 21 181 157 185 175L217 305C221 318 249 365 273 387C281 394 310 420 353 420C379 420 395 408 395 408C365 403 343 379 343 353C343 337 354 318 381 318C408 318 436 341 436 377Z" stroke="rgb(0,0,0)" stroke-opacity="1" stroke-width="24" fill="rgb(0,0,0)" fill-opacity="1"></path></g></g><g><g transform="matrix(1,0,0,1,278.46875,122.53125)"><path transform="matrix(0.017,0,0,-0.017,0,0)" d="M203 1C203 67 178 106 139 106C106 106 86 81 86 53C86 26 106 0 139 0C151 0 164 4 174 13C177 15 179 16 179 16C179 16 181 15 181 1C181 -73 146 -133 113 -166C102 -177 102 -179 102 -182C102 -189 107 -193 112 -193C123 -193 203 -116 203 1Z" stroke="rgb(0,0,0)" stroke-opacity="1" stroke-width="0" fill="rgb(0,0,0)" fill-opacity="1"></path></g></g><g><g transform="matrix(1,0,0,1,286.59375,122.53125)"><path transform="matrix(0.017,0,0,-0.017,0,0)" d="M330 420C330 431 320 431 302 431L214 431C250 573 255 593 255 599C255 616 243 626 226 626C223 626 195 625 186 590L147 431L53 431C33 431 23 431 23 412C23 400 31 400 51 400L139 400C67 116 63 99 63 81C63 27 101 -11 155 -11C257 -11 314 135 314 143C314 153 306 153 302 153C293 153 292 150 287 139C244 35 191 11 157 11C136 11 126 24 126 57C126 81 128 88 132 105L206 400L300 400C320 400 330 400 330 420Z" stroke="rgb(0,0,0)" stroke-opacity="1" stroke-width="0" fill="rgb(0,0,0)" fill-opacity="1"></path></g></g><g><g transform="matrix(1,0,0,1,292.734375,122.53125)"><path transform="matrix(0.017,0,0,-0.017,0,0)" d="M288 208L288 292C288 463 183 663 73 746C71 747 69 748 67 748C62 748 57 743 57 738C57 735 59 732 61 730C165 652 234 452 234 292L234 208C234 48 165 -152 61 -230C59 -232 57 -235 57 -238C57 -243 62 -248 67 -248C69 -248 71 -247 73 -246C183 -163 288 37 288 208Z" stroke="rgb(0,0,0)" stroke-opacity="1" stroke-width="0" fill="rgb(0,0,0)" fill-opacity="1"></path></g></g></g></g><g><g><g><g><g><g><g transform="matrix(1,0,0,1,384.75,116)"><path transform="matrix(0.017,0,0,-0.017,0,0)" d="M527 0L527 31C457 31 449 38 449 87L449 694L305 683L305 652C375 652 383 645 383 596L383 380C354 416 311 442 257 442C139 442 34 344 34 215C34 88 132 -11 246 -11C310 -11 355 23 380 55L380 -11ZM380 118C380 100 380 98 369 81C339 33 294 11 251 11C206 11 170 37 146 75C120 116 117 173 117 214C117 251 119 311 148 356C169 387 207 420 261 420C296 420 338 405 369 360C380 343 380 341 380 323Z" stroke="rgb(208,2,27)" stroke-opacity="1" stroke-width="0" fill="rgb(208,2,27)" fill-opacity="1"></path></g></g><g><g transform="matrix(1,0,0,1,394.203125,116)"><path transform="matrix(0.017,0,0,-0.017,0,0)" d="M645 695C645 698 643 705 634 705C629 705 628 704 616 690L568 633C542 680 490 705 425 705C298 705 178 590 178 469C178 388 231 342 282 327L389 299C426 290 481 275 481 193C481 103 399 9 301 9C237 9 126 31 126 155C126 179 131 203 132 209C133 213 134 216 134 216C134 226 127 227 122 227C117 227 115 226 112 223C108 219 52 -9 52 -12C52 -18 57 -22 63 -22C68 -22 69 -21 81 -7L130 50C173 -8 241 -22 299 -22C435 -22 553 111 553 235C553 304 519 338 504 352C481 375 466 379 377 402L310 420C283 429 249 458 249 511C249 592 329 677 424 677C507 677 568 634 568 522C568 490 564 472 564 466C564 466 564 456 576 456C586 456 587 459 591 476Z" stroke="rgb(208,2,27)" stroke-opacity="1" stroke-width="24" fill="rgb(208,2,27)" fill-opacity="1"></path></g></g></g></g><g><g><g><g transform="matrix(1,0,0,1,387.515625,141.78125)"><path transform="matrix(0.017,0,0,-0.017,0,0)" d="M527 0L527 31C457 31 449 38 449 87L449 694L305 683L305 652C375 652 383 645 383 596L383 380C354 416 311 442 257 442C139 442 34 344 34 215C34 88 132 -11 246 -11C310 -11 355 23 380 55L380 -11ZM380 118C380 100 380 98 369 81C339 33 294 11 251 11C206 11 170 37 146 75C120 116 117 173 117 214C117 251 119 311 148 356C169 387 207 420 261 420C296 420 338 405 369 360C380 343 380 341 380 323Z" stroke="rgb(208,2,27)" stroke-opacity="1" stroke-width="0" fill="rgb(208,2,27)" fill-opacity="1"></path></g></g><g><g transform="matrix(1,0,0,1,396.96875,141.78125)"><path transform="matrix(0.017,0,0,-0.017,0,0)" d="M330 420C330 431 320 431 302 431L214 431C250 573 255 593 255 599C255 616 243 626 226 626C223 626 195 625 186 590L147 431L53 431C33 431 23 431 23 412C23 400 31 400 51 400L139 400C67 116 63 99 63 81C63 27 101 -11 155 -11C257 -11 314 135 314 143C314 153 306 153 302 153C293 153 292 150 287 139C244 35 191 11 157 11C136 11 126 24 126 57C126 81 128 88 132 105L206 400L300 400C320 400 330 400 330 420Z" stroke="rgb(208,2,27)" stroke-opacity="1" stroke-width="0" fill="rgb(208,2,27)" fill-opacity="1"></path></g></g></g></g><line style="fill:none;stroke-width:1px;stroke:rgb(208, 2, 27);" x1="384.75" y1="124.140625" x2="405.890625" y2="124.140625"></line></g></g></g><g><g><g><g transform="matrix(1,0,0,1,395.0625,28)"><path transform="matrix(0.017,0,0,-0.017,0,0)" d="M527 0L527 31C457 31 449 38 449 87L449 694L305 683L305 652C375 652 383 645 383 596L383 380C354 416 311 442 257 442C139 442 34 344 34 215C34 88 132 -11 246 -11C310 -11 355 23 380 55L380 -11ZM380 118C380 100 380 98 369 81C339 33 294 11 251 11C206 11 170 37 146 75C120 116 117 173 117 214C117 251 119 311 148 356C169 387 207 420 261 420C296 420 338 405 369 360C380 343 380 341 380 323Z" stroke="rgb(74,144,226)" stroke-opacity="1" stroke-width="0" fill="rgb(74,144,226)" fill-opacity="1"></path></g></g><g><g transform="matrix(1,0,0,1,404.515625,28)"><path transform="matrix(0.017,0,0,-0.017,0,0)" d="M258 683C258 683 258 694 245 694C222 694 149 686 123 684C115 683 104 682 104 663C104 652 114 652 129 652C177 652 178 643 178 635L175 615L49 115C46 104 44 97 44 81C44 24 88 -11 135 -11C168 -11 193 9 210 45C228 83 240 143 240 143C240 153 231 153 228 153C218 153 217 149 214 135C197 70 178 11 138 11C108 11 108 43 108 57C108 81 109 86 114 105Z" stroke="rgb(74,144,226)" stroke-opacity="1" stroke-width="24" fill="rgb(74,144,226)" fill-opacity="1"></path></g></g></g></g><g><g><g><g transform="matrix(1,0,0,1,128.1875,60.796875)"><path transform="matrix(0.017,0,0,-0.017,0,0)" d="M806 670C806 683 798 683 778 683L251 683C231 683 221 683 221 663C221 663 221 659 227 647L378 304L70 26C59 16 58 15 58 11C58 0 67 0 86 0L613 0C637 0 638 1 644 17L716 208C717 210 721 224 721 224C721 229 718 235 709 235C701 235 699 229 695 221C634 72 578 41 403 41L131 41L447 325C457 334 459 337 459 342C459 342 458 347 454 356L324 652L567 652C716 652 762 629 762 522C762 505 758 485 758 470C758 470 759 458 771 458C782 458 783 466 785 483L804 657Z" stroke="rgb(0,0,0)" stroke-opacity="1" stroke-width="0" fill="rgb(0,0,0)" fill-opacity="1"></path></g></g></g></g><g><g><g><g transform="matrix(1,0,0,1,220.1875,24)"><path transform="matrix(0.017,0,0,-0.017,0,0)" d="M515 457C475 616 357 716 234 716C89 716 76 586 83 558C86 544 99 523 129 523C162 523 176 553 170 576C161 611 130 611 114 611C140 685 209 691 238 691C311 691 394 639 427 510C436 471 443 420 441 339C416 401 361 457 283 457C222 457 161 441 102 363C40 280 56 187 64 156C80 94 152 -22 292 -22C530 -22 551 314 515 457ZM432 303C450 231 443 6 289 6C179 6 153 109 150 119C144 146 134 286 160 346C185 403 226 435 288 435C397 435 427 323 432 303ZM1392 670C1392 683 1384 683 1364 683L837 683C817 683 807 683 807 663C807 663 807 659 813 647L964 304L656 26C645 16 644 15 644 11C644 0 653 0 672 0L1199 0C1223 0 1224 1 1230 17L1302 208C1303 210 1307 224 1307 224C1307 229 1304 235 1295 235C1287 235 1285 229 1281 221C1220 72 1164 41 989 41L717 41L1033 325C1043 334 1045 337 1045 342C1045 342 1044 347 1040 356L910 652L1153 652C1302 652 1348 629 1348 522C1348 505 1344 485 1344 470C1344 470 1345 458 1357 458C1368 458 1369 466 1371 483L1390 657Z" stroke="rgb(0,0,0)" stroke-opacity="1" stroke-width="0" fill="rgb(0,0,0)" fill-opacity="1"></path></g></g></g></g></svg>
</svg>
