<svg xmlns="http://www.w3.org/2000/svg" xmlns:xlink="http://www.w3.org/1999/xlink" x="0" y="0" width="302" height="182.796875" style="
        width:302px;
        height:182.796875px;
        background: #FFF;
        fill: none;
">
        
        
        <svg xmlns="http://www.w3.org/2000/svg" class="role-diagram-draw-area"><g class="shapes-region" style="stroke: black; fill: none;"><g class="composite-shape"><path class="real" d=" M171.6,90.6 C171.6,65.31 182.57,44.8 196.1,44.8 C209.63,44.8 220.6,65.31 220.6,90.6 C220.6,115.89 209.63,136.4 196.1,136.4 C182.57,136.4 171.6,115.89 171.6,90.6 Z" style="stroke-width: 1; stroke: rgb(0, 0, 0); fill: none; fill-opacity: 1;"/></g><g class="composite-shape"><path class="real" d=" M36.6,90.6 C36.6,65.31 47.57,44.8 61.1,44.8 C74.63,44.8 85.6,65.31 85.6,90.6 C85.6,115.89 74.63,136.4 61.1,136.4 C47.57,136.4 36.6,115.89 36.6,90.6 Z" style="stroke-width: 1; stroke: rgb(0, 0, 0); fill: none; fill-opacity: 1;"/></g><g class="composite-shape"><path class="real" d=" M61.1,44.8 L164.6,44.8 L164.6,136.4 L61.1,136.4 Z" style="stroke-width: 1; stroke: rgb(255, 255, 255); stroke-opacity: 1; fill: rgb(255, 255, 255); fill-opacity: 1;"/></g><g class="arrow-line"><path class="connection real" stroke-dasharray="" d="  M61.1,44.8 L196.1,44.8" style="stroke: rgb(0, 0, 0); stroke-width: 1; fill: none; fill-opacity: 1;"/></g><g class="arrow-line"><path class="connection real" stroke-dasharray="" d="  M61.1,136.4 L196.1,136.4" style="stroke: rgb(0, 0, 0); stroke-width: 1; fill: none; fill-opacity: 1;"/></g><g class="arrow-line"><path class="connection real" stroke-dasharray="" d="  M89.2,89.6 L145,89.6" style="stroke: rgb(0, 0, 0); stroke-width: 1; fill: none; fill-opacity: 1;"/><g stroke="none" fill="#000" transform="matrix(-1,1.2246467991473532e-16,-1.2246467991473532e-16,-1,147,89.60000000000001)" style="stroke: none; fill: rgb(0, 0, 0); stroke-width: 1;"><path d=" M9.6,-2.4 L0,0 L9.6,2.4 Z"/></g></g><g class="arrow-line"><path class="connection real" stroke-dasharray="1.125 3.35" d="  M199.8,72.4 C241,53.6 208.6,33.2 256.6,20" style="stroke: rgb(0, 0, 0); stroke-width: 1; fill: none; fill-opacity: 1;"/></g><g class="arrow-line"><path class="connection real" stroke-dasharray="1.125 3.35" d="  M61.1,90.6 L61.1,170.8" style="stroke: rgb(0, 0, 0); stroke-width: 1; fill: none; fill-opacity: 1;"/></g><g class="arrow-line"><path class="connection real" stroke-dasharray="1.125 3.35" d="  M196.1,90.6 L196.1,170.8" style="stroke: rgb(0, 0, 0); stroke-width: 1; fill: none; fill-opacity: 1;"/></g><g class="arrow-line"><path class="connection real" stroke-dasharray="" d="  M63.1,170.8 L194.1,170.8" style="stroke: rgb(0, 0, 0); stroke-width: 1; fill: none; fill-opacity: 1;"/><g stroke="none" fill="#000" transform="matrix(-1,1.2246467991473532e-16,-1.2246467991473532e-16,-1,196.09999999999994,170.80000000000004)" style="stroke: none; fill: rgb(0, 0, 0); stroke-width: 1;"><path d=" M9.6,-2.4 L0,0 L9.6,2.4 Z"/></g><g stroke="none" fill="#000" transform="matrix(1,0,0,1,61.099999999999966,170.8)" style="stroke: none; fill: rgb(0, 0, 0); stroke-width: 1;"><path d=" M9.6,-2.4 L0,0 L9.6,2.4 Z"/></g></g><g/></g><g/><g/><g/></svg>
        <svg xmlns="http://www.w3.org/2000/svg" xmlns:xlink="http://www.w3.org/1999/xlink" width="300" height="180.796875" style="width:300px;height:180.796875px;font-family:LatinModern-Math, LatinModern, Asana-Math, Asana;background:#FFF;"><g><g><g><g transform="matrix(1,0,0,1,100.59375,82.59375)"><path transform="matrix(0.017,0,0,-0.017,0,0)" d="M468 372C468 426 442 442 424 442C399 442 375 416 375 394C375 381 380 375 391 364C412 344 425 318 425 282C425 240 364 11 247 11C196 11 173 46 173 98C173 154 200 227 231 310C238 327 243 341 243 360C243 405 211 442 161 442C67 442 29 297 29 288C29 278 41 278 41 278C51 278 52 280 57 296C86 397 129 420 158 420C166 420 183 420 183 388C183 363 173 336 166 318C122 202 109 156 109 113C109 5 197 -11 243 -11C411 -11 468 320 468 372Z" stroke="rgb(0,0,0)" stroke-opacity="1" stroke-width="24" fill="rgb(0,0,0)" fill-opacity="1"></path></g></g><g><g transform="matrix(1,0,0,1,108.84375,82.59375)"><path transform="matrix(0.017,0,0,-0.017,0,0)" d="M332 -238C332 -235 330 -232 328 -230C224 -152 155 48 155 208L155 292C155 452 224 652 328 730C330 732 332 735 332 738C332 743 327 748 322 748C320 748 318 747 316 746C206 663 101 463 101 292L101 208C101 37 206 -163 316 -246C318 -247 320 -248 322 -248C327 -248 332 -243 332 -238Z" stroke="rgb(0,0,0)" stroke-opacity="1" stroke-width="0" fill="rgb(0,0,0)" fill-opacity="1"></path></g></g><g><g transform="matrix(1,0,0,1,115.46875,82.59375)"><path transform="matrix(0.017,0,0,-0.017,0,0)" d="M436 377C436 412 404 442 353 442C288 442 244 393 225 365C217 410 181 442 134 442C88 442 69 403 60 385C42 351 29 291 29 288C29 278 41 278 41 278C51 278 52 279 58 301C75 372 95 420 131 420C148 420 162 412 162 374C162 353 159 342 146 290L88 59C85 44 79 21 79 16C79 -2 93 -11 108 -11C120 -11 138 -3 145 17C147 21 181 157 185 175L217 305C221 318 249 365 273 387C281 394 310 420 353 420C379 420 395 408 395 408C365 403 343 379 343 353C343 337 354 318 381 318C408 318 436 341 436 377Z" stroke="rgb(0,0,0)" stroke-opacity="1" stroke-width="24" fill="rgb(0,0,0)" fill-opacity="1"></path></g></g><g><g transform="matrix(1,0,0,1,123.140625,82.59375)"><path transform="matrix(0.017,0,0,-0.017,0,0)" d="M203 1C203 67 178 106 139 106C106 106 86 81 86 53C86 26 106 0 139 0C151 0 164 4 174 13C177 15 179 16 179 16C179 16 181 15 181 1C181 -73 146 -133 113 -166C102 -177 102 -179 102 -182C102 -189 107 -193 112 -193C123 -193 203 -116 203 1Z" stroke="rgb(0,0,0)" stroke-opacity="1" stroke-width="0" fill="rgb(0,0,0)" fill-opacity="1"></path></g></g><g><g transform="matrix(1,0,0,1,131.265625,82.59375)"><path transform="matrix(0.017,0,0,-0.017,0,0)" d="M330 420C330 431 320 431 302 431L214 431C250 573 255 593 255 599C255 616 243 626 226 626C223 626 195 625 186 590L147 431L53 431C33 431 23 431 23 412C23 400 31 400 51 400L139 400C67 116 63 99 63 81C63 27 101 -11 155 -11C257 -11 314 135 314 143C314 153 306 153 302 153C293 153 292 150 287 139C244 35 191 11 157 11C136 11 126 24 126 57C126 81 128 88 132 105L206 400L300 400C320 400 330 400 330 420Z" stroke="rgb(0,0,0)" stroke-opacity="1" stroke-width="0" fill="rgb(0,0,0)" fill-opacity="1"></path></g></g><g><g transform="matrix(1,0,0,1,137.40625,82.59375)"><path transform="matrix(0.017,0,0,-0.017,0,0)" d="M288 208L288 292C288 463 183 663 73 746C71 747 69 748 67 748C62 748 57 743 57 738C57 735 59 732 61 730C165 652 234 452 234 292L234 208C234 48 165 -152 61 -230C59 -232 57 -235 57 -238C57 -243 62 -248 67 -248C69 -248 71 -247 73 -246C183 -163 288 37 288 208Z" stroke="rgb(0,0,0)" stroke-opacity="1" stroke-width="0" fill="rgb(0,0,0)" fill-opacity="1"></path></g></g></g></g><g><g><g><g transform="matrix(1,0,0,1,258.59375,23.59375)"><path transform="matrix(0.017,0,0,-0.017,0,0)" d="M721 20C721 31 711 31 698 31C636 31 636 38 633 67L572 692C570 712 570 716 553 716C537 716 533 709 527 699L179 115C139 48 100 34 56 31C44 30 35 30 35 11C35 5 40 0 48 0C75 0 106 3 134 3C167 3 202 0 234 0C240 0 253 0 253 19C253 30 244 31 237 31C214 33 190 41 190 66C190 78 196 89 204 103C211 115 212 115 280 231L531 231C533 210 547 74 547 64C547 34 495 31 475 31C461 31 451 31 451 11C451 0 465 0 465 0C506 0 549 3 590 3C615 3 678 0 703 0C709 0 721 0 721 20ZM528 262L299 262L496 592Z" stroke="rgb(0,0,0)" stroke-opacity="1" stroke-width="0" fill="rgb(0,0,0)" fill-opacity="1"></path></g></g></g></g><g><g><g><g transform="matrix(1,0,0,1,123.390625,165.1875)"><path transform="matrix(0.017,0,0,-0.017,0,0)" d="M527 0L527 31C457 31 449 38 449 87L449 694L305 683L305 652C375 652 383 645 383 596L383 380C354 416 311 442 257 442C139 442 34 344 34 215C34 88 132 -11 246 -11C310 -11 355 23 380 55L380 -11ZM380 118C380 100 380 98 369 81C339 33 294 11 251 11C206 11 170 37 146 75C120 116 117 173 117 214C117 251 119 311 148 356C169 387 207 420 261 420C296 420 338 405 369 360C380 343 380 341 380 323Z" stroke="rgb(0,0,0)" stroke-opacity="1" stroke-width="0" fill="rgb(0,0,0)" fill-opacity="1"></path></g></g><g><g transform="matrix(1,0,0,1,132.84375,165.1875)"><path transform="matrix(0.017,0,0,-0.017,0,0)" d="M258 683C258 683 258 694 245 694C222 694 149 686 123 684C115 683 104 682 104 663C104 652 114 652 129 652C177 652 178 643 178 635L175 615L49 115C46 104 44 97 44 81C44 24 88 -11 135 -11C168 -11 193 9 210 45C228 83 240 143 240 143C240 153 231 153 228 153C218 153 217 149 214 135C197 70 178 11 138 11C108 11 108 43 108 57C108 81 109 86 114 105Z" stroke="rgb(0,0,0)" stroke-opacity="1" stroke-width="0" fill="rgb(0,0,0)" fill-opacity="1"></path></g></g></g></g><g><g><g><g transform="matrix(1,0,0,1,30.59375,31)"><path transform="matrix(0.017,0,0,-0.017,0,0)" d="M571 143C571 153 562 153 559 153C549 153 549 150 544 135C524 67 491 11 442 11C425 11 418 21 418 44C418 69 427 93 436 115C455 168 497 278 497 335C497 402 454 442 382 442C292 442 243 378 226 355C221 411 180 442 134 442C88 442 69 403 59 385C43 351 29 292 29 288C29 278 41 278 41 278C51 278 52 279 58 301C75 372 95 420 131 420C151 420 162 407 162 374C162 353 159 342 146 290L88 59C85 44 79 21 79 16C79 -2 93 -11 108 -11C120 -11 138 -3 145 17C146 19 158 66 164 91L186 181C192 203 198 225 203 248L216 298C231 329 284 420 379 420C424 420 433 383 433 350C433 288 384 160 368 117C359 94 358 82 358 71C358 24 393 -11 440 -11C534 -11 571 135 571 143Z" stroke="rgb(0,0,0)" stroke-opacity="1" stroke-width="0" fill="rgb(0,0,0)" fill-opacity="1"></path></g></g><g><g transform="matrix(1,0,0,1,44.1875,31)"><path transform="matrix(0.017,0,0,-0.017,0,0)" d="M192 378C192 407 168 431 139 431C110 431 86 407 86 378C86 349 110 325 139 325C168 325 192 349 192 378ZM192 53C192 82 168 106 139 106C110 106 86 82 86 53C86 24 110 0 139 0C168 0 192 24 192 53Z" stroke="rgb(0,0,0)" stroke-opacity="1" stroke-width="0" fill="rgb(0,0,0)" fill-opacity="1"></path></g></g><g><g><g><g><g transform="matrix(1,0,0,1,52.3125,31)"><path transform="matrix(0.015,0,0,-0.015,0,0)" d="M35 0L401 0C569 0 707 148 707 336C707 526 572 683 401 683L35 683L35 652L59 652C136 652 138 641 138 605L138 78C138 42 136 31 59 31L35 31ZM224 71L224 612C224 645 226 652 273 652L373 652C435 652 504 630 555 559C598 500 607 414 607 336C607 225 588 165 552 116C532 89 475 31 374 31L273 31C226 31 224 38 224 71ZM791 220C791 86 896 -11 1011 -11C1133 -11 1178 100 1178 119C1178 129 1170 131 1165 131C1156 131 1154 125 1152 117C1117 14 1027 14 1017 14C967 14 927 44 904 81C874 129 874 195 874 231L1153 231C1175 231 1178 231 1178 252C1178 351 1124 448 999 448C883 448 791 345 791 220ZM875 252C881 401 965 426 999 426C1102 426 1112 291 1112 252ZM1239 0C1274 1 1325 3 1352 3C1378 3 1430 1 1464 0L1464 31C1397 31 1386 31 1386 76L1386 260C1386 364 1457 420 1521 420C1584 420 1595 366 1595 309L1595 76C1595 31 1584 31 1517 31L1517 0C1552 1 1603 3 1630 3C1656 3 1708 1 1742 0L1742 31C1690 31 1665 31 1664 61L1664 252C1664 338 1664 369 1633 405C1619 422 1586 442 1528 442C1455 442 1408 399 1380 337L1380 442L1239 431L1239 400C1309 400 1317 393 1317 344L1317 76C1317 31 1306 31 1239 31ZM1795 13C1795 -4 1795 -11 1806 -11C1811 -11 1812 -10 1831 9C1833 11 1833 13 1851 32C1895 -10 1940 -11 1961 -11C2076 -11 2122 56 2122 128C2122 181 2092 211 2080 223C2047 255 2008 263 1966 271C1910 282 1843 295 1843 353C1843 388 1869 429 1955 429C2065 429 2070 339 2072 308C2073 299 2082 299 2084 299C2097 299 2097 304 2097 323L2097 424C2097 441 2097 448 2086 448C2081 448 2079 448 2066 436C2063 432 2053 423 2049 420C2011 448 1970 448 1955 448C1833 448 1795 381 1795 325C1795 290 1811 262 1838 240C1870 214 1898 208 1970 194C1992 190 2074 174 2074 102C2074 51 2039 11 1961 11C1877 11 1841 68 1822 153C1819 166 1818 170 1808 170C1795 170 1795 163 1795 145ZM2231 616C2231 589 2253 563 2284 563C2312 563 2337 584 2337 616C2337 648 2312 669 2284 669C2253 669 2231 642 2231 616ZM2189 0C2221 1 2275 3 2299 3C2334 3 2369 1 2403 0L2403 31C2337 31 2333 36 2333 75L2333 442L2193 431L2193 400C2258 400 2267 394 2267 345L2267 76C2267 31 2256 31 2189 31ZM2452 400L2537 400L2537 124C2537 1 2630 -11 2666 -11C2737 -11 2765 60 2765 124L2765 181L2740 181L2740 126C2740 52 2710 14 2673 14C2606 14 2606 105 2606 122L2606 400L2749 400L2749 431L2606 431L2606 615L2581 615C2580 533 2550 426 2452 422ZM2812 -124C2812 -169 2854 -205 2904 -205C2967 -205 3008 -148 3032 -91L3208 336C3234 399 3285 400 3301 400L3301 431C3278 429 3249 428 3226 428C3208 428 3161 430 3139 431L3139 400C3170 399 3186 382 3186 357C3186 347 3185 345 3180 333L3079 87L2968 356C2964 366 2962 370 2962 374C2962 400 2999 400 3018 400L3018 431C2992 430 2926 428 2909 428C2882 428 2842 429 2812 431L2812 400C2860 400 2879 400 2893 365L3043 0C3038 -13 3024 -46 3018 -59C2996 -114 2968 -183 2904 -183C2899 -183 2876 -183 2857 -165C2888 -161 2896 -139 2896 -123C2896 -97 2877 -81 2854 -81C2834 -81 2812 -94 2812 -124ZM3681 214C3681 85 3785 -11 3902 -11C4023 -11 4124 87 4124 214C4124 342 4024 448 3903 448C3778 448 3681 339 3681 214ZM3764 222C3764 261 3764 315 3788 359C3815 405 3862 426 3902 426C3946 426 3989 404 4015 361C4041 318 4041 260 4041 222C4041 186 4041 132 4019 88C3997 43 3953 14 3903 14C3860 14 3816 35 3789 81C3764 125 3764 186 3764 222ZM4186 400L4265 400L4265 76C4265 31 4254 31 4187 31L4187 0C4226 1 4273 3 4301 3C4341 3 4388 3 4428 0L4428 31L4407 31C4333 31 4331 42 4331 78L4331 400L4445 400L4445 431L4328 431L4328 547C4328 635 4376 683 4420 683C4423 683 4438 683 4453 676C4441 672 4423 659 4423 634C4423 611 4439 591 4466 591C4495 591 4510 611 4510 635C4510 672 4473 705 4420 705C4350 705 4265 652 4265 546L4265 431L4186 431ZM4825 216C4825 88 4924 -11 5040 -11C5174 -11 5206 109 5206 119C5206 129 5196 129 5193 129C5184 129 5182 125 5180 119C5151 26 5086 14 5049 14C4996 14 4908 57 4908 218C4908 381 4990 423 5043 423C5052 423 5115 422 5150 386C5109 383 5103 353 5103 340C5103 314 5121 294 5149 294C5175 294 5195 311 5195 341C5195 409 5119 448 5042 448C4917 448 4825 340 4825 216ZM5239 0C5274 1 5325 3 5352 3C5378 3 5430 1 5464 0L5464 31C5397 31 5386 31 5386 76L5386 260C5386 364 5457 420 5521 420C5584 420 5595 366 5595 309L5595 76C5595 31 5584 31 5517 31L5517 0C5552 1 5603 3 5630 3C5656 3 5708 1 5742 0L5742 31C5690 31 5665 31 5664 61L5664 252C5664 338 5664 369 5633 405C5619 422 5586 442 5528 442C5444 442 5400 382 5384 346L5383 346L5383 694L5239 683L5239 652C5309 652 5317 645 5317 596L5317 76C5317 31 5306 31 5239 31ZM5804 95C5804 14 5901 -11 5964 -11C6030 -11 6076 29 6095 76C6099 36 6126 -6 6173 -6C6194 -6 6255 8 6255 89L6255 145L6230 145L6230 89C6230 31 6205 25 6194 25C6161 25 6157 70 6157 75L6157 275C6157 317 6157 356 6121 393C6082 432 6032 448 5984 448C5902 448 5833 401 5833 335C5833 305 5853 288 5879 288C5907 288 5925 308 5925 334C5925 346 5920 379 5874 380C5901 415 5950 426 5982 426C6031 426 6088 387 6088 298L6088 261C6037 258 5967 255 5904 225C5829 191 5804 139 5804 95ZM5881 96C5881 151 5923 234 6088 240L6088 140C6088 45 6016 11 5971 11C5922 11 5881 46 5881 96ZM6290 0C6329 1 6376 3 6404 3C6444 3 6491 3 6531 0L6531 31L6510 31C6436 31 6434 42 6434 78L6434 232C6434 331 6476 420 6552 420C6559 420 6561 420 6563 419C6560 418 6540 406 6540 380C6540 352 6561 337 6583 337C6601 337 6626 349 6626 381C6626 413 6595 442 6552 442C6479 442 6443 375 6429 332L6429 442L6290 431L6290 400C6360 400 6368 393 6368 344L6368 76C6368 31 6357 31 6290 31ZM6681 -79C6681 -151 6780 -206 6902 -206C7020 -206 7124 -155 7124 -77C7124 -42 7110 9 7059 37C7006 65 6948 65 6887 65C6862 65 6819 65 6812 66C6780 70 6759 101 6759 133C6759 137 6759 160 6776 180C6815 152 6856 149 6875 149C6968 149 7037 218 7037 295C7037 332 7021 369 6996 392C7032 426 7068 431 7086 431C7088 431 7093 431 7096 430C7085 426 7080 415 7080 403C7080 386 7093 374 7109 374C7119 374 7138 381 7138 404C7138 421 7126 453 7087 453C7067 453 7023 447 6981 406C6939 439 6897 442 6875 442C6782 442 6713 373 6713 296C6713 252 6735 214 6760 193C6747 178 6729 145 6729 110C6729 79 6742 41 6773 21C6713 4 6681 -39 6681 -79ZM6733 -79C6733 -33 6771 4 6815 7L6874 7C6960 7 7072 7 7072 -79C7072 -133 7001 -183 6903 -183C6802 -183 6733 -132 6733 -79ZM6788 295C6788 322 6789 354 6804 379C6812 391 6835 419 6875 419C6962 419 6962 319 6962 296C6962 269 6961 237 6946 212C6938 200 6915 172 6875 172C6788 172 6788 272 6788 295ZM7181 220C7181 86 7286 -11 7401 -11C7523 -11 7568 100 7568 119C7568 129 7560 131 7555 131C7546 131 7544 125 7542 117C7507 14 7417 14 7407 14C7357 14 7317 44 7294 81C7264 129 7264 195 7264 231L7543 231C7565 231 7568 231 7568 252C7568 351 7514 448 7389 448C7273 448 7181 345 7181 220ZM7265 252C7271 401 7355 426 7389 426C7492 426 7502 291 7502 252ZM7964 216C7964 88 8063 -11 8179 -11C8313 -11 8345 109 8345 119C8345 129 8335 129 8332 129C8323 129 8321 125 8319 119C8290 26 8225 14 8188 14C8135 14 8047 57 8047 218C8047 381 8129 423 8182 423C8191 423 8254 422 8289 386C8248 383 8242 353 8242 340C8242 314 8260 294 8288 294C8314 294 8334 311 8334 341C8334 409 8258 448 8181 448C8056 448 7964 340 7964 216ZM8416 95C8416 14 8513 -11 8576 -11C8642 -11 8688 29 8707 76C8711 36 8738 -6 8785 -6C8806 -6 8867 8 8867 89L8867 145L8842 145L8842 89C8842 31 8817 25 8806 25C8773 25 8769 70 8769 75L8769 275C8769 317 8769 356 8733 393C8694 432 8644 448 8596 448C8514 448 8445 401 8445 335C8445 305 8465 288 8491 288C8519 288 8537 308 8537 334C8537 346 8532 379 8486 380C8513 415 8562 426 8594 426C8643 426 8700 387 8700 298L8700 261C8649 258 8579 255 8516 225C8441 191 8416 139 8416 95ZM8493 96C8493 151 8535 234 8700 240L8700 140C8700 45 8628 11 8583 11C8534 11 8493 46 8493 96ZM8902 0C8941 1 8988 3 9016 3C9056 3 9103 3 9143 0L9143 31L9122 31C9048 31 9046 42 9046 78L9046 232C9046 331 9088 420 9164 420C9171 420 9173 420 9175 419C9172 418 9152 406 9152 380C9152 352 9173 337 9195 337C9213 337 9238 349 9238 381C9238 413 9207 442 9164 442C9091 442 9055 375 9041 332L9041 442L8902 431L8902 400C8972 400 8980 393 8980 344L8980 76C8980 31 8969 31 8902 31ZM9293 0C9332 1 9379 3 9407 3C9447 3 9494 3 9534 0L9534 31L9513 31C9439 31 9437 42 9437 78L9437 232C9437 331 9479 420 9555 420C9562 420 9564 420 9566 419C9563 418 9543 406 9543 380C9543 352 9564 337 9586 337C9604 337 9629 349 9629 381C9629 413 9598 442 9555 442C9482 442 9446 375 9432 332L9432 442L9293 431L9293 400C9363 400 9371 393 9371 344L9371 76C9371 31 9360 31 9293 31ZM9731 616C9731 589 9753 563 9784 563C9812 563 9837 584 9837 616C9837 648 9812 669 9784 669C9753 669 9731 642 9731 616ZM9689 0C9721 1 9775 3 9799 3C9834 3 9869 1 9903 0L9903 31C9837 31 9833 36 9833 75L9833 442L9693 431L9693 400C9758 400 9767 394 9767 345L9767 76C9767 31 9756 31 9689 31ZM9961 220C9961 86 10066 -11 10181 -11C10303 -11 10348 100 10348 119C10348 129 10340 131 10335 131C10326 131 10324 125 10322 117C10287 14 10197 14 10187 14C10137 14 10097 44 10074 81C10044 129 10044 195 10044 231L10323 231C10345 231 10348 231 10348 252C10348 351 10294 448 10169 448C10053 448 9961 345 9961 220ZM10045 252C10051 401 10135 426 10169 426C10272 426 10282 291 10282 252ZM10405 0C10444 1 10491 3 10519 3C10559 3 10606 3 10646 0L10646 31L10625 31C10551 31 10549 42 10549 78L10549 232C10549 331 10591 420 10667 420C10674 420 10676 420 10678 419C10675 418 10655 406 10655 380C10655 352 10676 337 10698 337C10716 337 10741 349 10741 381C10741 413 10710 442 10667 442C10594 442 10558 375 10544 332L10544 442L10405 431L10405 400C10475 400 10483 393 10483 344L10483 76C10483 31 10472 31 10405 31ZM10801 13C10801 -4 10801 -11 10812 -11C10817 -11 10818 -10 10837 9C10839 11 10839 13 10857 32C10901 -10 10946 -11 10967 -11C11082 -11 11128 56 11128 128C11128 181 11098 211 11086 223C11053 255 11014 263 10972 271C10916 282 10849 295 10849 353C10849 388 10875 429 10961 429C11071 429 11076 339 11078 308C11079 299 11088 299 11090 299C11103 299 11103 304 11103 323L11103 424C11103 441 11103 448 11092 448C11087 448 11085 448 11072 436C11069 432 11059 423 11055 420C11017 448 10976 448 10961 448C10839 448 10801 381 10801 325C10801 290 10817 262 10844 240C10876 214 10904 208 10976 194C10998 190 11080 174 11080 102C11080 51 11045 11 10967 11C10883 11 10847 68 10828 153C10825 166 10824 170 10814 170C10801 170 10801 163 10801 145Z" stroke="rgb(0,0,0)" stroke-opacity="1" stroke-width="0" fill="rgb(0,0,0)" fill-opacity="1"></path></g></g></g></g></g></g></g></svg>
</svg>
