<svg xmlns="http://www.w3.org/2000/svg" xmlns:xlink="http://www.w3.org/1999/xlink" x="0" y="0" width="172" height="231.59375" style="
        width:172px;
        height:231.59375px;
        background: #FFF;
        fill: none;
">
        
        
        <svg xmlns="http://www.w3.org/2000/svg" class="role-diagram-draw-area"><g class="shapes-region" style="stroke: black; fill: none;"><g class="composite-shape"><path class="real" d=" M32.2,99.6 C32.2,90.76 39.36,83.6 48.2,83.6 L116.2,83.6 C125.04,83.6 132.2,90.76 132.2,99.6 L132.2,147.6 C132.2,156.44 125.04,163.6 116.2,163.6 L48.2,163.6 C39.36,163.6 32.2,156.44 32.2,147.6 Z" style="stroke-width: 1; stroke: rgb(0, 0, 0); fill: none; fill-opacity: 1;"/></g><g class="arrow-line"><path class="connection real" stroke-dasharray="" d="  M12.2,33.6 L50.95,82.04" style="stroke: rgb(0, 0, 0); stroke-width: 1; fill: none; fill-opacity: 1;"/><g stroke="none" fill="#000" transform="matrix(-0.6246976608044965,-0.7808667188358013,0.7808667188358013,-0.6246976608044965,52.2,83.60000000000002)" style="stroke: none; fill: rgb(0, 0, 0); stroke-width: 1;"><path d=" M9.6,-2.4 L0,0 L9.6,2.4 Z"/></g></g><g class="arrow-line"><path class="connection real" stroke-dasharray="" d="  M62.2,33.6 L71.81,81.64" style="stroke: rgb(0, 0, 0); stroke-width: 1; fill: none; fill-opacity: 1;"/><g stroke="none" fill="#000" transform="matrix(-0.19611729080206824,-0.9805804445574351,0.9805804445574351,-0.19611729080206824,72.2,83.60000000000004)" style="stroke: none; fill: rgb(0, 0, 0); stroke-width: 1;"><path d=" M9.6,-2.4 L0,0 L9.6,2.4 Z"/></g></g><g class="arrow-line"><path class="connection real" stroke-dasharray="" d="  M152.2,33.6 L113.45,82.04" style="stroke: rgb(0, 0, 0); stroke-width: 1; fill: none; fill-opacity: 1;"/><g stroke="none" fill="#000" transform="matrix(0.6246976608044955,-0.780866718835802,0.780866718835802,0.6246976608044955,112.19999999999999,83.60000000000002)" style="stroke: none; fill: rgb(0, 0, 0); stroke-width: 1;"><path d=" M9.6,-2.4 L0,0 L9.6,2.4 Z"/></g></g><g class="arrow-line"><path class="connection real" stroke-dasharray="" d="  M102.2,33.6 L92.59,81.64" style="stroke: rgb(0, 0, 0); stroke-width: 1; fill: none; fill-opacity: 1;"/><g stroke="none" fill="#000" transform="matrix(0.19611729080206788,-0.9805804445574351,0.9805804445574351,0.19611729080206788,92.2,83.60000000000002)" style="stroke: none; fill: rgb(0, 0, 0); stroke-width: 1;"><path d=" M9.6,-2.4 L0,0 L9.6,2.4 Z"/></g></g><g class="arrow-line"><path class="connection real" stroke-dasharray="1.125 3.35" d="  M72.2,43.6 L92.2,43.6" style="stroke: rgb(0, 0, 0); stroke-width: 1; fill: none; fill-opacity: 1;"/></g><g class="arrow-line"><path class="connection real" stroke-dasharray="" d="  M62.2,163.6 L62.2,198.44" style="stroke: rgb(0, 0, 0); stroke-width: 1; fill: none; fill-opacity: 1;"/><g stroke="none" fill="#000" transform="matrix(-1.8369701987210297e-16,-1,1,-1.8369701987210297e-16,62.19999999999999,200.44210526315794)" style="stroke: none; fill: rgb(0, 0, 0); stroke-width: 1;"><path d=" M9.6,-2.4 L0,0 L9.6,2.4 Z"/></g></g><g class="arrow-line"><path class="connection real" stroke-dasharray="" d="  M102.2,163.6 L102.2,198.44" style="stroke: rgb(0, 0, 0); stroke-width: 1; fill: none; fill-opacity: 1;"/><g stroke="none" fill="#000" transform="matrix(-1.8369701987210297e-16,-1,1,-1.8369701987210297e-16,102.19999999999999,200.44210526315794)" style="stroke: none; fill: rgb(0, 0, 0); stroke-width: 1;"><path d=" M9.6,-2.4 L0,0 L9.6,2.4 Z"/></g></g><g/></g><g/><g/><g/></svg>
        <svg xmlns="http://www.w3.org/2000/svg" xmlns:xlink="http://www.w3.org/1999/xlink" width="170" height="229.59375" style="width:170px;height:229.59375px;font-family:LatinModern-Math, LatinModern, Asana-Math, Asana;background:#FFF;"><g><g><g><g transform="matrix(1,0,0,1,57.1875,117.09375)"><path transform="matrix(0.0135,0,0,-0.0135,0,0)" d="M32 0C55 1 98 3 134 3C165 3 217 1 249 0L249 31C199 31 174 56 174 82C174 85 175 95 176 97L222 228L469 228L522 75C523 71 525 65 525 61C525 31 469 31 442 31L442 0C478 3 548 3 586 3C629 3 675 2 717 0L717 31L699 31C639 31 625 38 614 71L398 696C393 709 391 716 375 716C359 716 356 710 351 696L144 98C126 47 86 32 32 31ZM233 259L345 584L458 259ZM778 0C817 1 864 3 892 3C932 3 979 3 1019 0L1019 31L998 31C924 31 922 42 922 78L922 232C922 331 964 420 1040 420C1047 420 1049 420 1051 419C1048 418 1028 406 1028 380C1028 352 1049 337 1071 337C1089 337 1114 349 1114 381C1114 413 1083 442 1040 442C967 442 931 375 917 332L917 442L778 431L778 400C848 400 856 393 856 344L856 76C856 31 845 31 778 31ZM1160 400L1245 400L1245 124C1245 1 1338 -11 1374 -11C1445 -11 1473 60 1473 124L1473 181L1448 181L1448 126C1448 52 1418 14 1381 14C1314 14 1314 105 1314 122L1314 400L1457 400L1457 431L1314 431L1314 615L1289 615C1288 533 1258 426 1160 422ZM1604 616C1604 589 1626 563 1657 563C1685 563 1710 584 1710 616C1710 648 1685 669 1657 669C1626 669 1604 642 1604 616ZM1562 0C1594 1 1648 3 1672 3C1707 3 1742 1 1776 0L1776 31C1710 31 1706 36 1706 75L1706 442L1566 431L1566 400C1631 400 1640 394 1640 345L1640 76C1640 31 1629 31 1562 31ZM1833 0C1887 3 1919 3 1941 3C1979 3 2018 2 2056 0L2056 31L2048 31C1982 31 1978 39 1978 77L1978 400L2133 400C2184 400 2189 385 2189 336C2189 327 2188 318 2188 309L2188 75C2188 39 2180 31 2121 31L2111 31L2111 0C2165 3 2197 3 2219 3C2257 3 2295 2 2333 0L2333 31L2323 31C2272 31 2256 36 2256 72L2256 443L2111 432L2111 430L1975 430L1975 541C1975 648 2067 682 2123 682C2175 682 2203 656 2210 650C2182 649 2162 631 2162 604C2162 577 2184 558 2208 558C2232 558 2254 575 2254 606C2254 659 2201 705 2125 705C2032 705 1911 657 1911 542L1911 430L1833 430L1833 400L1911 400L1911 77C1911 39 1906 31 1841 31L1833 31ZM2395 216C2395 88 2494 -11 2610 -11C2744 -11 2776 109 2776 119C2776 129 2766 129 2763 129C2754 129 2752 125 2750 119C2721 26 2656 14 2619 14C2566 14 2478 57 2478 218C2478 381 2560 423 2613 423C2622 423 2685 422 2720 386C2679 383 2673 353 2673 340C2673 314 2691 294 2719 294C2745 294 2765 311 2765 341C2765 409 2689 448 2612 448C2487 448 2395 340 2395 216ZM2880 616C2880 589 2902 563 2933 563C2961 563 2986 584 2986 616C2986 648 2961 669 2933 669C2902 669 2880 642 2880 616ZM2838 0C2870 1 2924 3 2948 3C2983 3 3018 1 3052 0L3052 31C2986 31 2982 36 2982 75L2982 442L2842 431L2842 400C2907 400 2916 394 2916 345L2916 76C2916 31 2905 31 2838 31ZM3124 95C3124 14 3221 -11 3284 -11C3350 -11 3396 29 3415 76C3419 36 3446 -6 3493 -6C3514 -6 3575 8 3575 89L3575 145L3550 145L3550 89C3550 31 3525 25 3514 25C3481 25 3477 70 3477 75L3477 275C3477 317 3477 356 3441 393C3402 432 3352 448 3304 448C3222 448 3153 401 3153 335C3153 305 3173 288 3199 288C3227 288 3245 308 3245 334C3245 346 3240 379 3194 380C3221 415 3270 426 3302 426C3351 426 3408 387 3408 298L3408 261C3357 258 3287 255 3224 225C3149 191 3124 139 3124 95ZM3201 96C3201 151 3243 234 3408 240L3408 140C3408 45 3336 11 3291 11C3242 11 3201 46 3201 96ZM3615 0C3648 1 3701 3 3726 3C3751 3 3800 1 3837 0L3837 31C3770 31 3759 31 3759 76L3759 694L3615 683L3615 652C3685 652 3693 645 3693 596L3693 76C3693 31 3682 31 3615 31Z" stroke="rgb(0,0,0)" stroke-opacity="1" stroke-width="0" fill="rgb(0,0,0)" fill-opacity="1"></path></g></g></g><g><g><g transform="matrix(1,0,0,1,39.1875,135.984375)"><path transform="matrix(0.0135,0,0,-0.0135,0,0)" d="M32 0C67 1 118 3 145 3C171 3 223 1 257 0L257 31C190 31 179 31 179 76L179 260C179 364 250 420 314 420C377 420 388 366 388 309L388 76C388 31 377 31 310 31L310 0C345 1 396 3 423 3C449 3 501 1 535 0L535 31C483 31 458 31 457 61L457 252C457 338 457 369 426 405C412 422 379 442 321 442C248 442 201 399 173 337L173 442L32 431L32 400C102 400 110 393 110 344L110 76C110 31 99 31 32 31ZM583 220C583 86 688 -11 803 -11C925 -11 970 100 970 119C970 129 962 131 957 131C948 131 946 125 944 117C909 14 819 14 809 14C759 14 719 44 696 81C666 129 666 195 666 231L945 231C967 231 970 231 970 252C970 351 916 448 791 448C675 448 583 345 583 220ZM667 252C673 401 757 426 791 426C894 426 904 291 904 252ZM1031 400C1109 400 1109 397 1109 308L1109 158C1109 80 1109 -11 1261 -11C1317 -11 1361 17 1390 79L1390 -11L1534 0L1534 31C1464 31 1456 38 1456 87L1456 442L1309 431L1309 400C1379 400 1387 393 1387 344L1387 166C1387 79 1339 11 1266 11C1182 11 1178 58 1178 110L1178 442L1031 431ZM1582 0C1621 1 1668 3 1696 3C1736 3 1783 3 1823 0L1823 31L1802 31C1728 31 1726 42 1726 78L1726 232C1726 331 1768 420 1844 420C1851 420 1853 420 1855 419C1852 418 1832 406 1832 380C1832 352 1853 337 1875 337C1893 337 1918 349 1918 381C1918 413 1887 442 1844 442C1771 442 1735 375 1721 332L1721 442L1582 431L1582 400C1652 400 1660 393 1660 344L1660 76C1660 31 1649 31 1582 31ZM1987 95C1987 14 2084 -11 2147 -11C2213 -11 2259 29 2278 76C2282 36 2309 -6 2356 -6C2377 -6 2438 8 2438 89L2438 145L2413 145L2413 89C2413 31 2388 25 2377 25C2344 25 2340 70 2340 75L2340 275C2340 317 2340 356 2304 393C2265 432 2215 448 2167 448C2085 448 2016 401 2016 335C2016 305 2036 288 2062 288C2090 288 2108 308 2108 334C2108 346 2103 379 2057 380C2084 415 2133 426 2165 426C2214 426 2271 387 2271 298L2271 261C2220 258 2150 255 2087 225C2012 191 1987 139 1987 95ZM2064 96C2064 151 2106 234 2271 240L2271 140C2271 45 2199 11 2154 11C2105 11 2064 46 2064 96ZM2478 0C2511 1 2564 3 2589 3C2614 3 2663 1 2700 0L2700 31C2633 31 2622 31 2622 76L2622 694L2478 683L2478 652C2548 652 2556 645 2556 596L2556 76C2556 31 2545 31 2478 31ZM3087 0C3122 1 3173 3 3200 3C3226 3 3278 1 3312 0L3312 31C3245 31 3234 31 3234 76L3234 260C3234 364 3305 420 3369 420C3432 420 3443 366 3443 309L3443 76C3443 31 3432 31 3365 31L3365 0C3400 1 3451 3 3478 3C3504 3 3556 1 3590 0L3590 31C3538 31 3513 31 3512 61L3512 252C3512 338 3512 369 3481 405C3467 422 3434 442 3376 442C3303 442 3256 399 3228 337L3228 442L3087 431L3087 400C3157 400 3165 393 3165 344L3165 76C3165 31 3154 31 3087 31ZM3638 220C3638 86 3743 -11 3858 -11C3980 -11 4025 100 4025 119C4025 129 4017 131 4012 131C4003 131 4001 125 3999 117C3964 14 3874 14 3864 14C3814 14 3774 44 3751 81C3721 129 3721 195 3721 231L4000 231C4022 231 4025 231 4025 252C4025 351 3971 448 3846 448C3730 448 3638 345 3638 220ZM3722 252C3728 401 3812 426 3846 426C3949 426 3959 291 3959 252ZM4073 400L4158 400L4158 124C4158 1 4251 -11 4287 -11C4358 -11 4386 60 4386 124L4386 181L4361 181L4361 126C4361 52 4331 14 4294 14C4227 14 4227 105 4227 122L4227 400L4370 400L4370 431L4227 431L4227 615L4202 615C4201 533 4171 426 4073 422ZM4432 400C4482 400 4494 397 4506 365L4632 11C4637 -3 4640 -11 4653 -11C4666 -11 4668 -5 4673 9L4774 292L4876 8C4880 -3 4883 -11 4896 -11C4909 -11 4912 -2 4916 8L5033 336C5051 386 5082 399 5117 400L5117 431C5095 429 5066 428 5044 428C5015 428 4970 430 4951 431L4951 400C4987 399 5009 381 5009 352C5009 346 5009 344 5004 331L4913 75L4814 354C4810 366 4809 368 4809 373C4809 400 4848 400 4868 400L4868 431C4839 430 4788 428 4764 428C4734 428 4705 429 4675 431L4675 400C4712 400 4728 398 4738 385C4743 379 4754 349 4761 330L4675 88L4580 355C4575 367 4575 369 4575 373C4575 400 4614 400 4634 400L4634 431C4604 430 4548 428 4525 428C4521 428 4468 429 4432 431ZM5136 214C5136 85 5240 -11 5357 -11C5478 -11 5579 87 5579 214C5579 342 5479 448 5358 448C5233 448 5136 339 5136 214ZM5219 222C5219 261 5219 315 5243 359C5270 405 5317 426 5357 426C5401 426 5444 404 5470 361C5496 318 5496 260 5496 222C5496 186 5496 132 5474 88C5452 43 5408 14 5358 14C5315 14 5271 35 5244 81C5219 125 5219 186 5219 222ZM5636 0C5675 1 5722 3 5750 3C5790 3 5837 3 5877 0L5877 31L5856 31C5782 31 5780 42 5780 78L5780 232C5780 331 5822 420 5898 420C5905 420 5907 420 5909 419C5906 418 5886 406 5886 380C5886 352 5907 337 5929 337C5947 337 5972 349 5972 381C5972 413 5941 442 5898 442C5825 442 5789 375 5775 332L5775 442L5636 431L5636 400C5706 400 5714 393 5714 344L5714 76C5714 31 5703 31 5636 31ZM6027 0C6060 1 6107 3 6136 3C6166 3 6206 2 6246 0L6246 31C6179 31 6168 31 6168 76L6168 179L6232 234C6309 128 6351 72 6351 54C6351 35 6334 31 6315 31L6315 0C6343 1 6402 3 6423 3C6452 3 6481 2 6510 0L6510 31C6473 31 6451 31 6413 84L6286 263C6285 265 6280 271 6280 274C6280 278 6351 338 6361 346C6424 397 6466 399 6487 400L6487 431C6458 428 6445 428 6417 428C6381 428 6319 430 6305 431L6305 400C6324 399 6334 388 6334 375C6334 355 6320 343 6312 336L6171 214L6171 694L6027 683L6027 652C6097 652 6105 645 6105 596L6105 76C6105 31 6094 31 6027 31Z" stroke="rgb(0,0,0)" stroke-opacity="1" stroke-width="0" fill="rgb(0,0,0)" fill-opacity="1"></path></g></g></g></g><g><g><g><g transform="matrix(1,0,0,1,4.1875,20.59375)"><path transform="matrix(0.017,0,0,-0.017,0,0)" d="M490 282C490 376 433 442 357 442C307 442 259 406 226 367C216 421 173 442 136 442C90 442 71 403 62 385C44 351 31 291 31 288C31 278 43 278 43 278C53 278 54 279 60 301C77 372 97 420 133 420C150 420 164 412 164 374C164 351 161 340 157 323L45 -122C37 -156 35 -163 -9 -163C-21 -163 -32 -163 -32 -182C-32 -190 -27 -194 -19 -194C8 -194 37 -191 65 -191C98 -191 132 -194 164 -194C169 -194 182 -194 182 -174C182 -163 172 -163 158 -163C108 -163 108 -156 108 -147C108 -135 150 28 157 53C170 24 198 -11 249 -11C365 -11 490 135 490 282ZM418 326C418 267 385 152 367 114C333 44 285 11 248 11C182 11 169 94 169 100C169 100 169 104 172 116L221 312C228 339 255 367 273 382C308 413 337 420 354 420C394 420 418 385 418 326Z" stroke="rgb(0,0,0)" stroke-opacity="1" stroke-width="0" fill="rgb(0,0,0)" fill-opacity="1"></path></g></g><g><g><g><g><g transform="matrix(1,0,0,1,13.25,23.603125)"><path transform="matrix(0.0119,0,0,-0.0119,0,0)" d="M419 0L419 31L387 31C297 31 294 42 294 79L294 640C294 664 294 666 271 666C209 602 121 602 89 602L89 571C109 571 168 571 220 597L220 79C220 43 217 31 127 31L95 31L95 0C130 3 217 3 257 3C297 3 384 3 419 0Z" stroke="rgb(0,0,0)" stroke-opacity="1" stroke-width="0" fill="rgb(0,0,0)" fill-opacity="1"></path></g></g></g></g></g></g></g><g><g><g><g transform="matrix(1,0,0,1,53.1875,20.59375)"><path transform="matrix(0.017,0,0,-0.017,0,0)" d="M490 282C490 376 433 442 357 442C307 442 259 406 226 367C216 421 173 442 136 442C90 442 71 403 62 385C44 351 31 291 31 288C31 278 43 278 43 278C53 278 54 279 60 301C77 372 97 420 133 420C150 420 164 412 164 374C164 351 161 340 157 323L45 -122C37 -156 35 -163 -9 -163C-21 -163 -32 -163 -32 -182C-32 -190 -27 -194 -19 -194C8 -194 37 -191 65 -191C98 -191 132 -194 164 -194C169 -194 182 -194 182 -174C182 -163 172 -163 158 -163C108 -163 108 -156 108 -147C108 -135 150 28 157 53C170 24 198 -11 249 -11C365 -11 490 135 490 282ZM418 326C418 267 385 152 367 114C333 44 285 11 248 11C182 11 169 94 169 100C169 100 169 104 172 116L221 312C228 339 255 367 273 382C308 413 337 420 354 420C394 420 418 385 418 326Z" stroke="rgb(0,0,0)" stroke-opacity="1" stroke-width="0" fill="rgb(0,0,0)" fill-opacity="1"></path></g></g><g><g><g><g><g transform="matrix(1,0,0,1,62.25,23.603125)"><path transform="matrix(0.0119,0,0,-0.0119,0,0)" d="M449 174L424 174C419 144 412 100 402 85C395 77 329 77 307 77L127 77L233 180C389 318 449 372 449 472C449 586 359 666 237 666C124 666 50 574 50 485C50 429 100 429 103 429C120 429 155 441 155 482C155 508 137 534 102 534C94 534 92 534 89 533C112 598 166 635 224 635C315 635 358 554 358 472C358 392 308 313 253 251L61 37C50 26 50 24 50 0L421 0Z" stroke="rgb(0,0,0)" stroke-opacity="1" stroke-width="0" fill="rgb(0,0,0)" fill-opacity="1"></path></g></g></g></g></g></g></g><g><g><g><g transform="matrix(1,0,0,1,94.1875,20.59375)"><path transform="matrix(0.017,0,0,-0.017,0,0)" d="M490 282C490 376 433 442 357 442C307 442 259 406 226 367C216 421 173 442 136 442C90 442 71 403 62 385C44 351 31 291 31 288C31 278 43 278 43 278C53 278 54 279 60 301C77 372 97 420 133 420C150 420 164 412 164 374C164 351 161 340 157 323L45 -122C37 -156 35 -163 -9 -163C-21 -163 -32 -163 -32 -182C-32 -190 -27 -194 -19 -194C8 -194 37 -191 65 -191C98 -191 132 -194 164 -194C169 -194 182 -194 182 -174C182 -163 172 -163 158 -163C108 -163 108 -156 108 -147C108 -135 150 28 157 53C170 24 198 -11 249 -11C365 -11 490 135 490 282ZM418 326C418 267 385 152 367 114C333 44 285 11 248 11C182 11 169 94 169 100C169 100 169 104 172 116L221 312C228 339 255 367 273 382C308 413 337 420 354 420C394 420 418 385 418 326Z" stroke="rgb(0,0,0)" stroke-opacity="1" stroke-width="0" fill="rgb(0,0,0)" fill-opacity="1"></path></g></g><g><g><g><g><g transform="matrix(1,0,0,1,103.25,23.603125)"><path transform="matrix(0.0119,0,0,-0.0119,0,0)" d="M508 379C508 409 485 442 440 442C412 442 366 434 294 354C260 316 221 276 183 261L287 683C287 683 287 694 274 694C251 694 178 686 152 684C144 683 133 682 133 664C133 652 142 652 157 652C205 652 207 645 207 635L204 615L59 39C55 25 55 23 55 17C55 -6 75 -11 84 -11C97 -11 112 -2 118 10C123 19 168 204 174 229C208 226 290 210 290 144C290 137 290 133 287 123C285 111 283 99 283 88C283 29 323 -11 375 -11C405 -11 432 5 454 42C479 86 490 143 490 143C490 153 481 153 478 153C468 153 467 149 464 135C444 62 421 11 377 11C358 11 345 22 345 58C345 75 349 98 353 114C357 131 357 135 357 145C357 210 294 239 209 250C240 268 272 300 295 324C343 377 389 420 438 420C444 420 445 420 447 419C459 417 460 417 468 411C470 410 470 409 472 407C424 404 415 365 415 353C415 337 426 318 453 318C479 318 508 340 508 379ZM1243 250C1243 261 1234 270 1223 270L597 270C586 270 577 261 577 250C577 239 586 230 597 230L1223 230C1234 230 1243 239 1243 250ZM1718 0L1718 31L1686 31C1596 31 1593 42 1593 79L1593 640C1593 664 1593 666 1570 666C1508 602 1420 602 1388 602L1388 571C1408 571 1467 571 1519 597L1519 79C1519 43 1516 31 1426 31L1394 31L1394 0C1429 3 1516 3 1556 3C1596 3 1683 3 1718 0Z" stroke="rgb(0,0,0)" stroke-opacity="1" stroke-width="0" fill="rgb(0,0,0)" fill-opacity="1"></path></g></g></g></g></g></g></g><g><g><g><g transform="matrix(1,0,0,1,147.1875,20.59375)"><path transform="matrix(0.017,0,0,-0.017,0,0)" d="M490 282C490 376 433 442 357 442C307 442 259 406 226 367C216 421 173 442 136 442C90 442 71 403 62 385C44 351 31 291 31 288C31 278 43 278 43 278C53 278 54 279 60 301C77 372 97 420 133 420C150 420 164 412 164 374C164 351 161 340 157 323L45 -122C37 -156 35 -163 -9 -163C-21 -163 -32 -163 -32 -182C-32 -190 -27 -194 -19 -194C8 -194 37 -191 65 -191C98 -191 132 -194 164 -194C169 -194 182 -194 182 -174C182 -163 172 -163 158 -163C108 -163 108 -156 108 -147C108 -135 150 28 157 53C170 24 198 -11 249 -11C365 -11 490 135 490 282ZM418 326C418 267 385 152 367 114C333 44 285 11 248 11C182 11 169 94 169 100C169 100 169 104 172 116L221 312C228 339 255 367 273 382C308 413 337 420 354 420C394 420 418 385 418 326Z" stroke="rgb(0,0,0)" stroke-opacity="1" stroke-width="0" fill="rgb(0,0,0)" fill-opacity="1"></path></g></g><g><g><g><g><g transform="matrix(1,0,0,1,156.25,23.603125)"><path transform="matrix(0.0119,0,0,-0.0119,0,0)" d="M508 379C508 409 485 442 440 442C412 442 366 434 294 354C260 316 221 276 183 261L287 683C287 683 287 694 274 694C251 694 178 686 152 684C144 683 133 682 133 664C133 652 142 652 157 652C205 652 207 645 207 635L204 615L59 39C55 25 55 23 55 17C55 -6 75 -11 84 -11C97 -11 112 -2 118 10C123 19 168 204 174 229C208 226 290 210 290 144C290 137 290 133 287 123C285 111 283 99 283 88C283 29 323 -11 375 -11C405 -11 432 5 454 42C479 86 490 143 490 143C490 153 481 153 478 153C468 153 467 149 464 135C444 62 421 11 377 11C358 11 345 22 345 58C345 75 349 98 353 114C357 131 357 135 357 145C357 210 294 239 209 250C240 268 272 300 295 324C343 377 389 420 438 420C444 420 445 420 447 419C459 417 460 417 468 411C470 410 470 409 472 407C424 404 415 365 415 353C415 337 426 318 453 318C479 318 508 340 508 379Z" stroke="rgb(0,0,0)" stroke-opacity="1" stroke-width="0" fill="rgb(0,0,0)" fill-opacity="1"></path></g></g></g></g></g></g></g><g><g><g><g transform="matrix(1,0,0,1,54.1875,218.59375)"><path transform="matrix(0.017,0,0,-0.017,0,0)" d="M760 695C760 698 758 705 749 705C746 705 745 704 734 693L664 616C655 630 609 705 498 705C275 705 50 484 50 252C50 93 161 -22 323 -22C367 -22 412 -13 448 2C498 22 517 43 535 63C544 38 570 1 580 1C585 1 587 5 587 5C589 7 599 45 604 66L623 143C627 160 632 177 636 194C647 239 648 241 705 242C710 242 721 243 721 262C721 269 716 273 708 273C685 273 626 270 603 270L463 273C454 273 442 273 442 253C442 242 450 242 472 242C472 242 502 242 525 240C551 237 556 234 556 221C556 212 545 167 535 130C507 20 377 9 342 9C246 9 141 66 141 219C141 250 151 415 256 545C310 613 407 674 506 674C608 674 667 597 667 481C667 441 664 440 664 430C664 420 675 420 679 420C692 420 692 422 697 440Z" stroke="rgb(0,0,0)" stroke-opacity="1" stroke-width="0" fill="rgb(0,0,0)" fill-opacity="1"></path></g></g><g><g><g><g><g transform="matrix(1,0,0,1,68.0625,221.603125)"><path transform="matrix(0.0119,0,0,-0.0119,0,0)" d="M430 107C430 113 424 120 418 120C413 120 411 118 405 110C326 11 217 11 205 11C127 11 118 95 118 127C118 139 119 170 134 231L187 231C216 231 290 233 340 254C410 284 415 343 415 357C415 401 377 442 308 442C197 442 46 345 46 170C46 68 105 -11 203 -11C346 -11 430 95 430 107ZM382 357C382 253 222 253 181 253L140 253C179 405 282 420 308 420C355 420 382 391 382 357Z" stroke="rgb(0,0,0)" stroke-opacity="1" stroke-width="0" fill="rgb(0,0,0)" fill-opacity="1"></path></g></g></g></g></g></g></g><g><g><g><g transform="matrix(1,0,0,1,94.1875,218.59375)"><path transform="matrix(0.017,0,0,-0.017,0,0)" d="M760 695C760 698 758 705 749 705C746 705 745 704 734 693L664 616C655 630 609 705 498 705C275 705 50 484 50 252C50 93 161 -22 323 -22C367 -22 412 -13 448 2C498 22 517 43 535 63C544 38 570 1 580 1C585 1 587 5 587 5C589 7 599 45 604 66L623 143C627 160 632 177 636 194C647 239 648 241 705 242C710 242 721 243 721 262C721 269 716 273 708 273C685 273 626 270 603 270L463 273C454 273 442 273 442 253C442 242 450 242 472 242C472 242 502 242 525 240C551 237 556 234 556 221C556 212 545 167 535 130C507 20 377 9 342 9C246 9 141 66 141 219C141 250 151 415 256 545C310 613 407 674 506 674C608 674 667 597 667 481C667 441 664 440 664 430C664 420 675 420 679 420C692 420 692 422 697 440Z" stroke="rgb(0,0,0)" stroke-opacity="1" stroke-width="0" fill="rgb(0,0,0)" fill-opacity="1"></path></g></g><g><g><g><g><g transform="matrix(1,0,0,1,108.0625,221.603125)"><path transform="matrix(0.0119,0,0,-0.0119,0,0)" d="M848 143C848 153 839 153 836 153C826 153 826 150 821 135C806 82 774 11 719 11C702 11 695 21 695 44C695 69 704 93 713 115C732 167 774 278 774 335C774 400 734 442 659 442C584 442 533 398 496 345C495 358 492 392 464 416C439 437 407 442 382 442C292 442 243 378 226 355C221 412 179 442 134 442C88 442 69 403 60 385C42 350 29 291 29 288C29 278 41 278 41 278C51 278 52 279 58 301C75 372 95 420 131 420C147 420 162 412 162 374C162 353 159 342 146 290L88 59C85 44 79 21 79 16C79 -2 93 -11 108 -11C120 -11 138 -3 145 17C146 19 158 66 164 91L186 181C192 203 198 225 203 248L216 298C231 329 284 420 379 420C424 420 433 383 433 350C433 325 426 297 418 267L390 151C380 114 379 108 370 75C366 55 357 21 357 16C357 -2 371 -11 386 -11C417 -11 423 14 431 46L491 287C494 300 547 420 656 420C699 420 710 386 710 350C710 293 668 179 648 126C639 102 635 91 635 71C635 24 670 -11 717 -11C811 -11 848 135 848 143Z" stroke="rgb(0,0,0)" stroke-opacity="1" stroke-width="0" fill="rgb(0,0,0)" fill-opacity="1"></path></g></g></g></g></g></g></g></svg>
</svg>
