<svg xmlns="http://www.w3.org/2000/svg" xmlns:xlink="http://www.w3.org/1999/xlink" x="0" y="0" width="142" height="155.796875" style="
        width:142px;
        height:155.796875px;
        background: #FFF;
        fill: none;
">
        
        
        <svg xmlns="http://www.w3.org/2000/svg" class="role-diagram-draw-area"><g class="shapes-region" style="stroke: black; fill: none;"><g class="composite-shape"><path class="real" d=" M34.2,24.4 L52.2,6.4 L94.2,6.4 L94.2,131.65 L76.2,149.65 L34.2,149.65 Z" style="stroke-width: 1; stroke: rgb(0, 0, 0); fill: rgb(255, 255, 255); fill-opacity: 1;"/><path class="real" d=" M94.2,6.4 L76.2,24.4 L34.2,24.4" style="stroke-width: 1; stroke: rgb(0, 0, 0); fill: none; fill-opacity: 1;"/><path class="real" d=" M76.2,24.4 L76.2,149.65" style="stroke-width: 1; stroke: rgb(0, 0, 0); fill: none; fill-opacity: 1;"/></g><g class="composite-shape"><path class="real" d=" M24.95,62.65 L66.95,62.65 L48.95,80.65 L6.95,80.65 Z" style="stroke-width: 1; stroke: rgb(0, 0, 0); fill: none; fill-opacity: 1;"/></g><g class="composite-shape"><path class="real" d=" M35.2,44.4 L70.83,44.4 L70.83,70.65 L35.2,70.65 Z" style="stroke-width: 1; stroke: rgb(255, 255, 255); stroke-opacity: 1; fill: rgb(255, 255, 255); fill-opacity: 1;"/></g><g class="arrow-line"><path class="connection real" stroke-dasharray="" d="  M34.2,70.65 L58.83,70.65" style="stroke: rgb(0, 0, 0); stroke-width: 1; fill: none; fill-opacity: 1;"/></g><g class="composite-shape"><path class="real" d=" M26.95,71.65 L41.08,71.65 L41.08,79.65 L26.95,79.65 Z" style="stroke-width: 1; stroke: rgb(255, 255, 255); stroke-opacity: 1; fill: rgb(255, 255, 255); fill-opacity: 1;"/></g><g class="arrow-line"><path class="connection real" stroke-dasharray="1.125 3.35" d="  M94.2,6.4 L132.57,6.4" style="stroke: rgb(0, 0, 0); stroke-width: 1; fill: none; fill-opacity: 1;"/></g><g class="arrow-line"><path class="connection real" stroke-dasharray="1.125 3.35" d="  M94.2,131.65 L132.57,131.65" style="stroke: rgb(0, 0, 0); stroke-width: 1; fill: none; fill-opacity: 1;"/></g><g class="arrow-line"><path class="connection real" stroke-dasharray="1.125 3.35" d="  M132.57,8.4 L132.57,129.65" style="stroke: rgb(0, 0, 0); stroke-width: 1; fill: none; fill-opacity: 1;"/><g stroke="none" fill="#000" transform="matrix(-1.8369701987210297e-16,-1,1,-1.8369701987210297e-16,132.575,131.65)" style="stroke: none; fill: rgb(0, 0, 0); stroke-width: 1;"><path d=" M7.2,-1.8 L0,0 L7.2,1.8 Z"/></g><g stroke="none" fill="#000" transform="matrix(6.123233995736766e-17,1,-1,6.123233995736766e-17,132.575,6.3999999999999915)" style="stroke: none; fill: rgb(0, 0, 0); stroke-width: 1;"><path d=" M7.2,-1.8 L0,0 L7.2,1.8 Z"/></g></g><g/></g><g/><g/><g/></svg>
        <svg xmlns="http://www.w3.org/2000/svg" xmlns:xlink="http://www.w3.org/1999/xlink" width="140" height="153.796875" style="width:140px;height:153.796875px;font-family:LatinModern-Math, LatinModern, Asana-Math, Asana;background:#FFF;"><g transform="matrix(-1.8369701987210297e-16,-1,1,-1.8369701987210297e-16,47.50000000000003,194.375)"><g><g><g transform="matrix(1,0,0,1,100.734375,78.9375)"><path transform="matrix(0.015,0,0,-0.015,0,0)" d="M89 571C109 571 168 571 220 597L220 79C220 43 217 31 127 31L95 31L95 0C130 3 217 3 257 3C297 3 384 3 419 0L419 31L387 31C297 31 294 42 294 79L294 640C294 664 294 666 271 666C209 602 121 602 89 602ZM539 320C539 245 543 155 584 79C627 -2 700 -22 749 -22C803 -22 879 -1 923 94C955 163 960 241 960 320C960 400 955 480 920 554C874 650 792 666 750 666C690 666 617 640 576 547C544 478 539 400 539 320ZM622 332C622 396 622 462 630 516C649 635 724 644 749 644C782 644 848 626 867 527C877 471 877 395 877 332C877 257 877 189 866 125C851 30 794 0 749 0C710 0 651 25 633 121C622 181 622 273 622 332ZM1361 0C1394 1 1441 3 1470 3C1500 3 1540 2 1580 0L1580 31C1513 31 1502 31 1502 76L1502 179L1566 234C1643 128 1685 72 1685 54C1685 35 1668 31 1649 31L1649 0C1677 1 1736 3 1757 3C1786 3 1815 2 1844 0L1844 31C1807 31 1785 31 1747 84L1620 263C1619 265 1614 271 1614 274C1614 278 1685 338 1695 346C1758 397 1800 399 1821 400L1821 431C1792 428 1779 428 1751 428C1715 428 1653 430 1639 431L1639 400C1658 399 1668 388 1668 375C1668 355 1654 343 1646 336L1505 214L1505 694L1361 683L1361 652C1431 652 1439 645 1439 596L1439 76C1439 31 1428 31 1361 31ZM1892 0C1927 1 1978 3 2005 3C2031 3 2083 1 2117 0L2117 31C2050 31 2039 31 2039 76L2039 260C2039 364 2110 420 2174 420C2237 420 2248 366 2248 309L2248 76C2248 31 2237 31 2170 31L2170 0C2205 1 2256 3 2283 3C2309 3 2361 1 2395 0L2395 31C2328 31 2317 31 2317 76L2317 260C2317 364 2388 420 2452 420C2515 420 2526 366 2526 309L2526 76C2526 31 2515 31 2448 31L2448 0C2483 1 2534 3 2561 3C2587 3 2639 1 2673 0L2673 31C2621 31 2596 31 2595 61L2595 252C2595 338 2595 369 2564 405C2550 422 2517 442 2459 442C2375 442 2331 382 2314 344C2300 431 2226 442 2181 442C2108 442 2061 399 2033 337L2033 442L1892 431L1892 400C1962 400 1970 393 1970 344L1970 76C1970 31 1959 31 1892 31Z" stroke="rgb(0,0,0)" stroke-opacity="1" stroke-width="0" fill="rgb(0,0,0)" fill-opacity="1"></path></g></g></g></g></svg>
</svg>
